
<svg width="1280px" height="493px" viewBox="0 0 1280 493" fill="none" xmlns="http://www.w3.org/2000/svg">
<path d="M168.116 38.4648L-2 0.5V493H1281V12L1124.56 43.2679C1072.71 53.6325 1023.44 74.2265 979.631 103.847C928.895 138.153 870.927 160.287 810.238 168.527L718.794 180.943C686.654 185.307 654.206 186.988 621.787 185.97C528.295 183.033 436.873 157.705 355.199 112.112L342.204 104.859C287.69 74.4275 229.05 52.0635 168.116 38.4648Z" fill="url(#paint0_linear_12:15)"/>
<path d="M1257.18 239.629C1258.34 238.157 1259.4 236.605 1260.34 234.985L1238.09 231.335L1262.15 231.512C1264.46 226.49 1265.72 221.05 1265.85 215.525C1265.99 209.999 1264.99 204.504 1262.93 199.377L1230.65 216.122L1260.42 194.241C1257.63 189.422 1253.88 185.229 1249.4 181.923C1244.92 178.617 1239.8 176.269 1234.38 175.026C1228.95 173.782 1223.32 173.669 1217.85 174.694C1212.38 175.719 1207.17 177.86 1202.57 180.984C1197.96 184.107 1194.04 188.146 1191.06 192.849C1188.08 197.552 1186.1 202.819 1185.24 208.32C1184.39 213.822 1184.67 219.441 1186.08 224.827C1187.49 230.214 1190 235.252 1193.44 239.629C1191.64 241.921 1190.09 244.4 1188.81 247.023L1217.69 262.026L1186.9 251.693C1184.74 258.083 1184.2 264.913 1185.34 271.562C1186.48 278.212 1189.26 284.472 1193.43 289.777C1189.12 295.258 1186.3 301.757 1185.23 308.647C1184.17 315.538 1184.89 322.587 1187.35 329.114C1189.8 335.641 1193.89 341.426 1199.23 345.91C1204.57 350.394 1210.98 353.426 1217.83 354.713C1217.29 356.226 1217.02 357.82 1217.03 359.424C1217 361.799 1217.61 364.137 1218.79 366.198C1217.63 368.268 1217.03 370.599 1217.03 372.971C1217.03 375.342 1217.63 377.674 1218.79 379.744C1217.63 381.814 1217.03 384.146 1217.03 386.517C1217.03 388.889 1217.63 391.221 1218.79 393.291C1217.63 395.36 1217.03 397.692 1217.03 400.064C1217.03 402.435 1217.63 404.767 1218.79 406.837C1217.61 408.898 1217 411.236 1217.03 413.61C1217.03 419.732 1220.82 424.692 1225.49 424.692C1230.17 424.692 1233.96 419.732 1233.96 413.61C1233.98 411.235 1233.37 408.898 1232.19 406.837C1233.35 404.768 1233.96 402.436 1233.96 400.064C1233.96 397.692 1233.35 395.36 1232.19 393.291C1233.35 391.221 1233.96 388.889 1233.96 386.517C1233.96 384.145 1233.35 381.813 1232.19 379.744C1233.35 377.675 1233.96 375.343 1233.96 372.971C1233.96 370.599 1233.35 368.267 1232.19 366.198C1233.37 364.137 1233.98 361.799 1233.96 359.424C1233.97 357.797 1233.69 356.181 1233.14 354.649C1239.95 353.309 1246.3 350.242 1251.59 345.742C1256.88 341.243 1260.92 335.461 1263.34 328.951C1265.75 322.441 1266.45 315.42 1265.37 308.561C1264.3 301.702 1261.48 295.234 1257.18 289.777C1262.81 282.629 1265.87 273.798 1265.87 264.703C1265.87 255.608 1262.81 246.777 1257.18 239.629Z" fill="#A3A1D0"/>
<path d="M1123.08 282.789C1122.31 281.804 1121.6 280.767 1120.97 279.685L1135.85 277.243L1119.76 277.359C1118.22 274.002 1117.37 270.364 1117.28 266.67C1117.19 262.975 1117.86 259.301 1119.24 255.873L1140.83 267.072L1120.92 252.438C1122.78 249.209 1125.29 246.399 1128.29 244.182C1131.28 241.966 1134.71 240.391 1138.34 239.556C1141.97 238.72 1145.74 238.643 1149.4 239.328C1153.06 240.013 1156.55 241.446 1159.63 243.537C1162.72 245.628 1165.34 248.333 1167.33 251.482C1169.32 254.631 1170.65 258.158 1171.22 261.841C1171.79 265.524 1171.59 269.285 1170.64 272.89C1169.69 276.494 1168.01 279.864 1165.7 282.789C1166.91 284.321 1167.94 285.979 1168.79 287.734L1149.48 297.766L1170.08 290.853C1171.53 295.127 1171.89 299.694 1171.12 304.141C1170.36 308.588 1168.5 312.774 1165.71 316.32C1168.59 319.985 1170.48 324.331 1171.2 328.938C1171.91 333.546 1171.42 338.26 1169.78 342.625C1168.14 346.99 1165.41 350.859 1161.84 353.858C1158.27 356.857 1153.98 358.884 1149.4 359.744C1149.76 360.756 1149.94 361.821 1149.93 362.894C1149.95 364.477 1149.54 366.036 1148.75 367.409C1149.53 368.793 1149.93 370.352 1149.93 371.938C1149.93 373.524 1149.53 375.083 1148.75 376.467C1149.53 377.851 1149.93 379.411 1149.93 380.997C1149.93 382.584 1149.53 384.143 1148.75 385.528C1149.53 386.911 1149.93 388.471 1149.93 390.056C1149.93 391.642 1149.53 393.201 1148.75 394.585C1149.54 395.959 1149.95 397.517 1149.93 399.1C1149.93 403.191 1147.4 406.51 1144.29 406.51C1141.18 406.51 1138.65 403.191 1138.65 399.1C1138.63 397.517 1139.04 395.959 1139.83 394.585C1139.05 393.201 1138.65 391.642 1138.65 390.056C1138.65 388.471 1139.05 386.911 1139.83 385.528C1139.05 384.143 1138.65 382.584 1138.65 380.997C1138.65 379.411 1139.05 377.851 1139.83 376.467C1139.05 375.083 1138.65 373.524 1138.65 371.938C1138.65 370.352 1139.05 368.793 1139.83 367.409C1139.04 366.036 1138.63 364.477 1138.65 362.894C1138.64 361.805 1138.83 360.724 1139.2 359.699C1134.64 358.803 1130.39 356.753 1126.86 353.744C1123.32 350.736 1120.62 346.87 1119 342.517C1117.39 338.163 1116.92 333.469 1117.64 328.882C1118.36 324.295 1120.24 319.97 1123.11 316.32C1119.35 311.54 1117.31 305.636 1117.31 299.555C1117.31 293.474 1119.35 287.569 1123.11 282.789H1123.08Z" fill="#A3A1D0"/>
<path d="M1092.54 443.077C1196.62 443.077 1281 432.464 1281 419.371C1281 406.278 1196.62 395.665 1092.54 395.665C988.449 395.665 904.07 406.278 904.07 419.371C904.07 432.464 988.449 443.077 1092.54 443.077Z" fill="#A3A1D0"/>
<path d="M1150.41 366.051C1150.41 366.803 1150.39 367.556 1150.35 368.278C1150.35 368.388 1150.35 368.493 1150.35 368.602C1150.15 371.781 1149.57 374.925 1148.63 377.968C1148.6 378.062 1148.57 378.164 1148.54 378.258C1147.57 381.287 1146.28 384.2 1144.68 386.946L1144.52 387.217C1142.8 390.111 1140.78 392.818 1138.5 395.292L1138.26 395.541C1135.7 398.293 1132.86 400.774 1129.78 402.946C1129.68 403.025 1129.57 403.104 1129.46 403.176C1126.25 405.428 1122.82 407.374 1119.24 408.986C1118.75 409.208 1118.25 409.426 1117.74 409.64L1117.28 409.828C1111.8 412.085 1106.06 413.643 1100.19 414.468L1099.47 414.566C1096.17 415.001 1092.85 415.218 1089.53 415.217C1064.89 415.217 1043.67 403.394 1034.09 386.382C1033.45 385.245 1032.86 384.086 1032.33 382.905L1032.11 382.419C1030.07 377.795 1028.92 372.833 1028.69 367.786C1028.69 367.661 1028.69 367.541 1028.69 367.409C1028.69 366.958 1028.68 366.502 1028.68 366.047C1028.67 362.529 1029.13 359.026 1030.04 355.628C1030.07 355.522 1030.1 355.421 1030.13 355.319C1031.08 351.857 1032.48 348.529 1034.27 345.415C1034.32 345.329 1034.36 345.238 1034.42 345.152C1036.18 342.136 1038.27 339.322 1040.65 336.76C1040.71 336.683 1040.78 336.609 1040.85 336.538L1040.88 336.508C1041.18 336.192 1041.48 335.872 1041.78 335.56L1042.25 335.093C1042.55 334.789 1042.86 334.491 1043.18 334.19H1043.2C1043.95 333.483 1044.72 332.797 1045.5 332.132C1046.58 331.214 1047.71 330.33 1048.88 329.479L1049.13 329.291C1052.24 327.075 1055.54 325.147 1059 323.53C1059.1 323.481 1059.21 323.428 1059.31 323.387C1063.2 321.588 1067.26 320.16 1071.42 319.12C1071.55 319.082 1071.68 319.052 1071.8 319.022C1076.95 317.764 1082.23 317.064 1087.53 316.934C1087.71 316.934 1087.89 316.934 1088.07 316.934C1088.55 316.934 1089.04 316.915 1089.52 316.915C1113.94 316.915 1135 328.531 1144.7 345.287C1144.79 345.438 1144.87 345.588 1144.96 345.735L1145.33 346.393C1145.54 346.77 1145.74 347.146 1145.93 347.545C1146.02 347.726 1146.11 347.902 1146.19 348.083C1146.25 348.188 1146.3 348.294 1146.35 348.403C1147.77 351.355 1148.84 354.465 1149.52 357.667C1149.55 357.791 1149.58 357.912 1149.6 358.043C1150.14 360.679 1150.41 363.361 1150.41 366.051Z" fill="#6C63FF"/>
<g opacity="0.2">
<path opacity="0.2" d="M1144.97 345.701C1142.19 344.647 1139.43 343.551 1136.69 342.412C1119.61 335.342 1103.17 326.81 1087.56 316.911H1088.1C1106 328.207 1124.96 337.706 1144.73 345.268C1144.8 345.415 1144.88 345.554 1144.97 345.701Z" fill="#A3A1D0"/>
</g>
<g opacity="0.2">
<path opacity="0.2" d="M1149.6 357.998C1142.83 355.74 1136.12 353.232 1129.49 350.472C1112.24 343.335 1095.64 334.705 1079.89 324.681C1076.92 322.793 1074.1 320.93 1071.42 319.094L1071.8 319C1074.41 320.783 1077.17 322.599 1080.08 324.448C1101.81 338.257 1125.12 349.4 1149.52 357.637C1149.55 357.757 1149.57 357.878 1149.6 357.998Z" fill="#A3A1D0"/>
</g>
<g opacity="0.2">
<path opacity="0.2" d="M1150.35 368.278C1150.35 368.388 1150.35 368.497 1150.35 368.602C1140.89 365.72 1131.56 362.373 1122.33 358.563C1105.08 351.419 1088.48 342.783 1072.72 332.753C1067.73 329.581 1063.16 326.473 1059.01 323.507L1059.32 323.361C1063.43 326.3 1067.97 329.381 1072.9 332.52C1097.01 347.843 1123.05 359.869 1150.35 368.278Z" fill="#A3A1D0"/>
</g>
<g opacity="0.2">
<path opacity="0.2" d="M1148.61 377.964C1148.58 378.066 1148.55 378.164 1148.52 378.261C1137.18 375.025 1126.03 371.143 1115.14 366.634C1097.88 359.493 1081.28 350.858 1065.53 340.828C1059.34 336.888 1053.78 333.043 1048.88 329.457L1049.13 329.272C1054.03 332.843 1059.55 336.67 1065.71 340.595C1091.42 356.943 1119.34 369.527 1148.61 377.964Z" fill="#A3A1D0"/>
</g>
<g opacity="0.2">
<path opacity="0.2" d="M1144.66 386.946L1144.5 387.217C1132.07 383.815 1119.86 379.637 1107.96 374.709C1090.7 367.566 1074.1 358.931 1058.35 348.903C1051.71 344.678 1045.79 340.557 1040.66 336.753C1040.72 336.681 1040.79 336.606 1040.86 336.535C1046 340.335 1051.91 344.437 1058.54 348.67C1078.25 361.219 1107.77 376.832 1144.66 386.946Z" fill="#A3A1D0"/>
</g>
<g opacity="0.2">
<path opacity="0.2" d="M1138.48 395.292L1138.25 395.541C1125.5 392.096 1112.98 387.836 1100.78 382.785C1083.52 375.642 1066.92 367.007 1051.17 356.979C1044.87 352.967 1039.23 349.058 1034.27 345.415C1034.32 345.329 1034.36 345.242 1034.42 345.156C1039.38 348.802 1045.04 352.723 1051.35 356.741C1071.25 369.411 1101.12 385.189 1138.48 395.292Z" fill="#A3A1D0"/>
</g>
<g opacity="0.2">
<path opacity="0.2" d="M1129.77 402.946C1129.66 403.025 1129.55 403.104 1129.45 403.176C1117.26 399.807 1105.28 395.694 1093.6 390.86C1076.34 383.718 1059.74 375.083 1043.99 365.054C1038.91 361.818 1034.24 358.657 1030.03 355.628C1030.06 355.526 1030.09 355.424 1030.12 355.323C1034.36 358.36 1039.05 361.558 1044.17 364.82C1063.8 377.313 1093.13 392.828 1129.77 402.946Z" fill="#A3A1D0"/>
</g>
<g opacity="0.2">
<path opacity="0.2" d="M1117.73 409.64L1117.28 409.828C1106.81 406.745 1096.51 403.109 1086.42 398.935C1076.64 394.89 1067 390.325 1057.6 385.294C1050.53 381.501 1043.6 377.446 1036.81 373.129C1033.98 371.323 1031.28 369.542 1028.71 367.786C1028.71 367.661 1028.71 367.541 1028.71 367.409C1031.34 369.203 1034.11 371.029 1037.02 372.888C1043.2 376.828 1050.35 381.065 1058.39 385.343C1077.3 395.423 1097.18 403.564 1117.73 409.64Z" fill="#A3A1D0"/>
</g>
<g opacity="0.2">
<path opacity="0.2" d="M1100.19 414.468L1099.47 414.566C1092.65 412.286 1085.91 409.766 1079.23 407.006C1064.77 401.022 1050.77 393.986 1037.35 385.953C1035.67 384.949 1034 383.933 1032.34 382.905L1032.13 382.419C1033.95 383.558 1035.86 384.719 1037.84 385.9C1057.54 397.626 1078.44 407.203 1100.19 414.468Z" fill="#A3A1D0"/>
</g>
<path opacity="0.1" d="M1119.23 408.986C1118.73 409.208 1118.24 409.426 1117.72 409.64L1117.27 409.828C1111.79 412.083 1106.05 413.642 1100.19 414.468L1099.47 414.566C1096.17 415.001 1092.85 415.219 1089.53 415.217C1064.89 415.217 1043.67 403.394 1034.09 386.382C1035.17 386.216 1036.25 386.077 1037.33 385.953L1037.82 385.9C1040.73 385.592 1043.67 385.418 1046.59 385.294C1050.26 385.102 1053.93 385.102 1057.59 385.294C1057.84 385.294 1058.1 385.324 1058.34 385.347C1060.84 385.524 1063.32 385.886 1065.76 386.431C1073.19 388.117 1080 391.778 1086.75 395.311C1097.18 400.752 1107.84 406.058 1119.23 408.986Z" fill="black"/>
<path opacity="0.1" d="M1144.72 345.253C1135.01 328.497 1113.95 316.881 1089.54 316.881C1089.05 316.881 1088.57 316.881 1088.08 316.881H1087.55C1082.24 317.009 1076.97 317.709 1071.81 318.97L1071.44 319.064C1067.28 320.107 1063.22 321.535 1059.32 323.331L1059.02 323.477C1055.56 325.094 1052.26 327.024 1049.15 329.242L1048.9 329.427C1046.01 331.511 1043.32 333.873 1040.89 336.478C1040.58 339.688 1040.04 342.83 1038.64 345.724C1037.65 347.756 1036.63 349.712 1038.03 351.744C1038.96 353.11 1040.99 354.841 1042.72 354.909C1047.46 355.101 1050.1 348.757 1052.34 345.596C1055.76 340.757 1060.84 337.396 1065.8 334.149C1067.91 332.761 1070.06 331.361 1072.45 330.529C1074.46 329.877 1076.56 329.508 1078.67 329.434C1084.44 329.111 1090.34 329.987 1095.61 332.377C1101.63 335.105 1106.97 339.808 1113.54 340.459C1116.52 340.753 1119.56 340.177 1122.48 340.858C1127.66 342.074 1131.25 346.962 1136.29 348.67C1139.56 349.776 1143.07 349.423 1146.39 348.339C1145.96 347.436 1145.5 346.547 1145.01 345.671C1144.88 345.554 1144.8 345.415 1144.72 345.253Z" fill="black"/>
<path d="M997.138 364.109C995.354 365.991 993.353 367.643 991.513 369.468C984.698 376.241 980.329 385.042 974.203 392.421C972.551 394.412 970.756 396.323 969.526 398.596C968.295 400.869 967.678 403.635 968.559 406.065C969.311 408.15 971.046 409.712 972.732 411.153C973.772 412.107 974.914 412.944 976.137 413.648C978.967 415.153 982.316 415.236 985.522 415.285C987.291 415.311 989.447 415.111 990.203 413.512C987.337 412.146 984.698 410.35 982.376 408.184C981.048 406.942 979.795 405.52 979.257 403.785C978.339 400.828 979.697 397.606 981.62 395.179C983.543 392.752 986.023 390.807 987.9 388.346C989.778 385.885 990.99 383.059 993.251 381.05C994.816 379.661 996.762 378.792 998.519 377.637C1001.09 375.947 1003.2 373.674 1005.29 371.424L1016.39 359.485C1016.66 359.256 1016.84 358.945 1016.92 358.6C1016.96 358.152 1016.63 357.761 1016.31 357.438C1013.9 354.958 1009.34 350.604 1006.03 353.87C1002.83 357.016 1000.23 360.843 997.138 364.109Z" fill="#A0616A"/>
<path opacity="0.1" d="M997.138 364.109C995.354 365.991 993.353 367.643 991.513 369.468C984.698 376.241 980.329 385.042 974.203 392.421C972.551 394.412 970.756 396.323 969.526 398.596C968.295 400.869 967.678 403.635 968.559 406.065C969.311 408.15 971.046 409.712 972.732 411.153C973.772 412.107 974.914 412.944 976.137 413.648C978.967 415.153 982.316 415.236 985.522 415.285C987.291 415.311 989.447 415.111 990.203 413.512C987.337 412.146 984.698 410.35 982.376 408.184C981.048 406.942 979.795 405.52 979.257 403.785C978.339 400.828 979.697 397.606 981.62 395.179C983.543 392.752 986.023 390.807 987.9 388.346C989.778 385.885 990.99 383.059 993.251 381.05C994.816 379.661 996.762 378.792 998.519 377.637C1001.09 375.947 1003.2 373.674 1005.29 371.424L1016.39 359.485C1016.66 359.256 1016.84 358.945 1016.92 358.6C1016.96 358.152 1016.63 357.761 1016.31 357.438C1013.9 354.958 1009.34 350.604 1006.03 353.87C1002.83 357.016 1000.23 360.843 997.138 364.109Z" fill="black"/>
<path d="M1013 342.405C1015.24 341.931 1017.65 343.124 1019.82 342.382C1021.04 341.961 1021.98 340.983 1022.87 340.034L1026.48 336.185C1027.5 335.097 1028.54 333.987 1029.16 332.633C1029.72 331.436 1029.92 330.115 1030.19 328.821C1030.85 325.509 1031.98 322.115 1034.47 319.835C1037.57 316.983 1042.35 316.448 1046.33 317.811C1050.31 319.173 1053.55 322.213 1055.93 325.69C1053.8 328.249 1051.42 330.612 1049.29 333.171C1048.61 334.067 1047.81 334.866 1046.92 335.545C1045.93 336.15 1044.86 336.622 1043.75 336.949C1039.92 338.303 1035.84 340.264 1034.27 344.008C1033.72 345.31 1033.51 346.728 1033.21 348.109C1032.63 350.721 1031.58 353.306 1029.66 355.176C1027.75 357.046 1024.87 358.07 1022.32 357.261C1019.5 356.365 1017.77 353.603 1016.32 351.029C1014.78 348.343 1013.66 345.434 1013 342.405Z" fill="#A0616A"/>
<path opacity="0.1" d="M1013 342.405C1015.24 341.931 1017.65 343.124 1019.82 342.382C1021.04 341.961 1021.98 340.983 1022.87 340.034L1026.48 336.185C1027.5 335.097 1028.54 333.987 1029.16 332.633C1029.72 331.436 1029.92 330.115 1030.19 328.821C1030.85 325.509 1031.98 322.115 1034.47 319.835C1037.57 316.983 1042.35 316.448 1046.33 317.811C1050.31 319.173 1053.55 322.213 1055.93 325.69C1053.8 328.249 1051.42 330.612 1049.29 333.171C1048.61 334.067 1047.81 334.866 1046.92 335.545C1045.93 336.15 1044.86 336.622 1043.75 336.949C1039.92 338.303 1035.84 340.264 1034.27 344.008C1033.72 345.31 1033.51 346.728 1033.21 348.109C1032.63 350.721 1031.58 353.306 1029.66 355.176C1027.75 357.046 1024.87 358.07 1022.32 357.261C1019.5 356.365 1017.77 353.603 1016.32 351.029C1014.78 348.343 1013.66 345.434 1013 342.405Z" fill="black"/>
<path d="M1111.03 327.458C1125.17 332.52 1139.23 338.514 1150.92 347.966C1156.27 352.297 1161.04 357.295 1166.12 361.934C1168.79 364.365 1171.54 366.694 1174.29 369.027L1193.81 385.584C1196.23 387.635 1198.66 389.689 1201.34 391.405C1207.65 395.462 1215.18 397.524 1221.35 401.885C1221.34 404.137 1221.71 406.375 1222.45 408.504C1222.73 409.288 1223.25 409.958 1223.95 410.413C1224.65 410.868 1225.48 411.081 1226.31 411.021C1236.04 410.461 1245.9 415.183 1255.71 413.994C1255.99 413.963 1256.26 413.867 1256.5 413.714C1256.74 413.56 1256.94 413.354 1257.09 413.11C1257.75 411.958 1256.62 410.882 1255.63 410.193L1242.32 400.876C1240.13 399.341 1237.94 397.806 1235.7 396.335C1227.62 391.021 1218.99 386.51 1211.5 380.41C1209.9 379.108 1208.36 377.738 1206.81 376.365C1198.66 369.118 1190.49 361.863 1182.76 354.164C1171.52 342.969 1160.89 330.48 1149.75 319.188C1148.69 318.061 1147.55 317.016 1146.33 316.061C1145.14 315.214 1143.9 314.451 1142.6 313.777L1128.46 306.006C1126.32 304.828 1123.94 303.613 1121.55 304.076C1120.96 303.93 1120.34 303.933 1119.75 304.084C1119.16 304.235 1118.62 304.529 1118.17 304.941C1117.26 305.78 1116.66 306.89 1116.06 307.978C1115.27 309.295 1114.66 310.704 1114.22 312.174C1113.71 314.172 1113.88 316.313 1113.3 318.277C1112.92 319.575 1112.22 320.761 1111.74 322.04C1111.12 323.775 1110.88 325.622 1111.03 327.458Z" fill="#A0616A"/>
<path opacity="0.1" d="M1111.03 327.458C1125.17 332.52 1139.23 338.514 1150.92 347.966C1156.27 352.297 1161.04 357.295 1166.12 361.934C1168.79 364.365 1171.54 366.694 1174.29 369.027L1193.81 385.584C1196.23 387.635 1198.66 389.689 1201.34 391.405C1207.65 395.462 1215.18 397.524 1221.35 401.885C1221.34 404.137 1221.71 406.375 1222.45 408.504C1222.73 409.288 1223.25 409.958 1223.95 410.413C1224.65 410.868 1225.48 411.081 1226.31 411.021C1236.04 410.461 1245.9 415.183 1255.71 413.994C1255.99 413.963 1256.26 413.867 1256.5 413.714C1256.74 413.56 1256.94 413.354 1257.09 413.11C1257.75 411.958 1256.62 410.882 1255.63 410.193L1242.32 400.876C1240.13 399.341 1237.94 397.806 1235.7 396.335C1227.62 391.021 1218.99 386.51 1211.5 380.41C1209.9 379.108 1208.36 377.738 1206.81 376.365C1198.66 369.118 1190.49 361.863 1182.76 354.164C1171.52 342.969 1160.89 330.48 1149.75 319.188C1148.69 318.061 1147.55 317.016 1146.33 316.061C1145.14 315.214 1143.9 314.451 1142.6 313.777L1128.46 306.006C1126.32 304.828 1123.94 303.613 1121.55 304.076C1120.96 303.93 1120.34 303.933 1119.75 304.084C1119.16 304.235 1118.62 304.529 1118.17 304.941C1117.26 305.78 1116.66 306.89 1116.06 307.978C1115.27 309.295 1114.66 310.704 1114.22 312.174C1113.71 314.172 1113.88 316.313 1113.3 318.277C1112.92 319.575 1112.22 320.761 1111.74 322.04C1111.12 323.775 1110.88 325.622 1111.03 327.458Z" fill="black"/>
<path d="M1015.08 371.669C1023.88 371.669 1031 364.541 1031 355.748C1031 346.955 1023.88 339.827 1015.08 339.827C1006.29 339.827 999.163 346.955 999.163 355.748C999.163 364.541 1006.29 371.669 1015.08 371.669Z" fill="#A0616A"/>
<path d="M1111.97 298.258C1114.19 298.296 1116.72 298.469 1118.12 300.196C1119.52 301.923 1119.2 304.29 1118.85 306.42C1117.74 313.152 1116.59 320.004 1113.51 326.093C1113.3 326.642 1112.91 327.109 1112.42 327.428C1111.53 327.884 1110.48 327.349 1109.64 326.826C1103.47 322.996 1097.3 318.872 1090.27 317.043C1089.85 316.988 1089.46 316.781 1089.18 316.46C1089.08 316.258 1089.03 316.038 1089.02 315.815C1089.01 315.591 1089.04 315.368 1089.11 315.158C1089.81 312.038 1090.7 308.956 1091.25 305.803C1091.58 303.922 1090.97 299.406 1092.63 298.24C1094.4 296.998 1099.48 298.048 1101.57 298.082L1111.97 298.258Z" fill="#A0616A"/>
<path d="M1119.46 329.332C1133.6 334.394 1147.66 340.388 1159.33 349.836C1164.68 354.171 1169.45 359.168 1174.53 363.808C1177.2 366.239 1179.95 368.568 1182.7 370.897L1202.22 387.454C1204.64 389.501 1207.07 391.56 1209.75 393.272C1216.09 397.343 1223.61 399.398 1229.77 403.74C1229.76 405.993 1230.13 408.232 1230.86 410.363C1231.14 411.146 1231.67 411.816 1232.37 412.271C1233.06 412.726 1233.89 412.939 1234.72 412.88C1244.45 412.316 1254.32 417.042 1264.12 415.853C1264.4 415.821 1264.67 415.725 1264.91 415.571C1265.15 415.417 1265.35 415.209 1265.5 414.965C1266.16 413.836 1265.03 412.737 1264.05 412.049L1250.74 402.735C1248.54 401.2 1246.35 399.665 1244.12 398.194C1236.05 392.88 1227.42 388.369 1219.92 382.273C1218.33 380.971 1216.79 379.597 1215.24 378.228C1207.09 370.98 1198.92 363.725 1191.19 356.026C1179.95 344.832 1169.32 332.343 1158.18 321.032C1157.11 319.92 1155.97 318.889 1154.75 317.946C1153.56 317.102 1152.32 316.34 1151.02 315.666L1136.88 307.895C1134.74 306.717 1132.36 305.502 1129.97 305.965C1129.38 305.818 1128.76 305.819 1128.17 305.97C1127.58 306.12 1127.04 306.414 1126.59 306.827C1125.68 307.666 1125.08 308.78 1124.48 309.867C1123.69 311.183 1123.07 312.591 1122.63 314.059C1122.13 316.057 1122.3 318.198 1121.71 320.166C1121.34 321.464 1120.64 322.65 1120.16 323.929C1119.55 325.66 1119.31 327.502 1119.46 329.332Z" fill="#A0616A"/>
<path d="M1124.15 330.499L1124.6 323.985C1124.73 322.164 1124.85 320.32 1125.42 318.586C1126.05 316.618 1127.21 314.868 1128.39 313.167C1129.02 312.175 1129.78 311.273 1130.65 310.484C1131.93 309.404 1133.59 308.817 1134.78 307.647C1135.13 307.312 1135.45 306.819 1135.24 306.386C1135.15 306.225 1135.02 306.086 1134.87 305.98C1131.92 303.56 1128.38 301.988 1124.89 300.441L1118.29 297.521C1115.51 301.284 1112.69 305.163 1111.26 309.626C1111.04 310.419 1110.77 311.196 1110.45 311.952C1109.6 313.717 1107.99 315.003 1106.97 316.674C1106.01 318.247 1105.61 320.087 1105.23 321.89C1105.01 322.947 1104.79 324.076 1105.17 325.088C1105.59 326.217 1106.68 326.947 1107.66 327.605C1112.03 330.469 1116.64 333.423 1121.86 333.829C1122.81 333.901 1124.08 334.379 1124.39 333.453C1124.6 332.832 1124.1 331.259 1124.15 330.499Z" fill="#3F3D56"/>
<path d="M993.733 348.802C992.085 351.01 993.191 354.228 994.899 356.391C996.608 358.555 998.892 360.369 999.847 362.954C1002.14 369.136 995.746 375.372 995.964 381.949C996.16 387.812 1001.34 392.06 1005.75 395.955C1015.11 404.233 1023.11 415.77 1022.06 428.233C1026.31 426.985 1029.99 424.27 1032.44 420.568C1033.87 423.704 1034.47 427.153 1034.2 430.588C1044.01 423.872 1049.6 411.454 1048.12 399.657C1047.41 394.073 1045.26 388.628 1045.6 383.014C1045.78 379.97 1046.68 377.023 1047.34 374.043C1048.17 370.201 1048.59 366.28 1048.58 362.348C1048.58 357.863 1047.75 352.881 1044.21 350.122C1041.2 347.778 1037.06 347.699 1033.25 347.718C1029.22 347.744 1025.19 347.763 1021.16 348.015C1017.06 348.271 1012.83 349.626 1008.78 349.727C1004.28 349.84 997.943 343.157 993.733 348.802Z" fill="#3F3D56"/>
<path d="M1053.91 319.349C1051.24 320.228 1048.85 321.764 1046.94 323.816C1045.74 325.118 1044.75 326.604 1043.5 327.865C1042.02 329.37 1040.21 330.499 1038.47 331.703C1035.16 333.998 1032.05 336.576 1028.95 339.15L1013.68 351.831C1011.29 353.814 1008.9 355.801 1006.64 357.938C1003.86 360.572 1001.3 363.447 998.327 365.874C996.589 367.296 994.719 368.564 993.123 370.149C991.618 371.654 990.399 373.388 989.165 375.108C984.137 382.088 978.735 388.79 972.984 395.187C970.542 397.908 968.017 400.587 965.048 402.713C958.892 407.149 954.218 413.791 948.807 419.115C948.348 419.567 947.844 420.21 948.126 420.793C948.295 421.073 948.564 421.276 948.879 421.362C952.837 422.837 956.247 416.413 960.371 417.324C962.252 417.738 963.407 419.518 964.755 420.876C966.102 422.235 968.412 423.236 969.819 421.937C969.337 418.159 969.828 414.32 971.246 410.784C973.552 405.061 978.128 400.549 983.012 396.771C987.896 392.993 993.213 389.772 997.8 385.637C1005.5 378.702 1011.12 369.242 1020.25 364.346C1023.82 362.427 1027.77 361.306 1031.34 359.342C1038.23 355.526 1043.06 348.805 1046.83 341.893C1047.27 340.945 1047.87 340.079 1048.6 339.33C1049.39 338.711 1050.27 338.212 1051.2 337.852C1056.05 335.614 1060.4 332.427 1063.99 328.478C1062.86 327.669 1061.81 326.804 1060.68 325.991C1059.77 325.385 1058.93 324.668 1058.19 323.857C1057.43 322.969 1056.95 321.904 1056.31 320.934C1055.67 319.963 1055 319.699 1053.91 319.349Z" fill="#A0616A"/>
<path d="M1095.01 320.512C1094.02 319.715 1093.99 318.255 1094.04 316.964C1094.2 313.005 1094.36 309.048 1094.52 305.092C1094.63 302.304 1094.89 299.18 1097 297.352C1090.91 296.13 1084.78 295.193 1078.6 294.541C1076.14 294.281 1073.66 294.067 1071.21 294.424C1068.26 294.853 1065.5 296.087 1062.79 297.31C1059.78 298.665 1056.75 300.031 1054.05 301.931C1053.01 302.734 1051.93 303.477 1050.8 304.159C1048.76 305.288 1046.41 305.664 1044.2 306.416C1039.11 308.15 1034.85 311.731 1032.26 316.452C1029.68 321.173 1028.96 326.691 1030.24 331.918C1030.99 329.972 1031.52 327.936 1032.4 326.044C1033.28 324.151 1034.58 322.364 1036.43 321.397C1038.35 320.396 1040.68 320.403 1042.77 320.979C1044.87 321.555 1046.76 322.665 1048.64 323.786C1052.83 326.326 1057.11 329.291 1059.1 333.765C1063.24 330.687 1067.47 327.745 1071.62 324.651C1073.42 323.316 1075.24 321.969 1077.33 321.16C1080.07 320.095 1083.08 320.031 1086.01 319.974C1088.95 319.918 1092.14 319.752 1095.01 320.512Z" fill="#FF6584"/>
<path d="M1030.23 331.556L1029.72 338.499L1031.53 337.009L1030.63 330.868L1030.23 331.556Z" fill="#FF6584"/>
<path d="M962.403 242.402L956.563 246.105L960.107 239.678C959.103 238.876 957.859 238.432 956.574 238.417H956.48C956.074 238.423 955.669 238.393 955.268 238.327L953.289 239.584L954.14 238.041C952.736 237.55 951.524 236.628 950.678 235.407L947.133 237.665L949.372 233.597C947.299 231.11 944.506 229.586 941.436 229.586C937.752 229.586 934.471 231.776 932.352 235.189C931.725 236.213 930.837 237.052 929.779 237.621C928.722 238.19 927.532 238.469 926.332 238.428H926.132C922.065 238.428 918.768 243.038 918.768 248.727C918.768 254.417 922.065 259.027 926.132 259.027C927.027 259.022 927.908 258.802 928.699 258.383C930.083 257.71 931.596 257.346 933.135 257.316C934.673 257.287 936.2 257.591 937.609 258.21C938.801 258.743 940.092 259.019 941.398 259.019C942.704 259.019 943.995 258.743 945.188 258.21C946.587 257.603 948.1 257.305 949.624 257.335C951.149 257.365 952.649 257.722 954.023 258.383C954.806 258.793 955.676 259.008 956.559 259.011C960.627 259.011 963.923 254.398 963.923 248.712C963.955 246.515 963.433 244.344 962.403 242.402Z" fill="#A3A1D0"/>
<path opacity="0.03" d="M951.396 257.472C949.272 257.068 947.074 257.306 945.086 258.157C943.892 258.686 942.6 258.958 941.295 258.955C939.989 258.952 938.698 258.674 937.507 258.138C936.098 257.52 934.571 257.216 933.033 257.247C931.494 257.277 929.981 257.642 928.597 258.315C927.805 258.732 926.925 258.952 926.031 258.955C922.418 258.955 919.412 255.316 918.787 250.515C919.509 249.989 920.122 249.328 920.593 248.569C922.708 245.156 925.993 242.963 929.677 242.963C933.361 242.963 936.601 245.126 938.708 248.505C939.341 249.528 940.229 250.369 941.284 250.947C942.339 251.524 943.526 251.819 944.728 251.802H944.822C947.694 251.802 950.185 254.108 951.396 257.472Z" fill="black"/>
<path d="M1066.62 164.185L1063.71 166.018L1065.48 162.804C1064.98 162.404 1064.36 162.182 1063.72 162.176H1063.69C1063.49 162.178 1063.29 162.163 1063.09 162.131L1062.1 162.755L1062.52 162.003C1061.82 161.759 1061.22 161.299 1060.8 160.69L1059.03 161.818L1060.16 159.79C1059.68 159.178 1059.08 158.68 1058.39 158.332C1057.7 157.984 1056.94 157.796 1056.16 157.781C1054.33 157.781 1052.69 158.872 1051.65 160.577C1051.33 161.088 1050.89 161.508 1050.36 161.791C1049.83 162.075 1049.24 162.213 1048.64 162.191H1048.54C1046.51 162.191 1044.87 164.49 1044.87 167.327C1044.87 170.165 1046.51 172.464 1048.54 172.464C1048.99 172.462 1049.42 172.352 1049.82 172.144C1050.51 171.806 1051.26 171.624 1052.03 171.609C1052.8 171.594 1053.56 171.747 1054.26 172.057C1054.85 172.322 1055.5 172.46 1056.14 172.464C1056.79 172.464 1057.43 172.328 1058.03 172.065C1058.72 171.762 1059.48 171.613 1060.24 171.628C1061 171.643 1061.75 171.822 1062.43 172.151C1062.82 172.356 1063.26 172.463 1063.7 172.464C1065.73 172.464 1067.37 170.165 1067.37 167.327C1067.39 166.234 1067.13 165.153 1066.62 164.185Z" fill="#A3A1D0"/>
<path opacity="0.03" d="M1058.13 171.704C1057.07 171.502 1055.98 171.622 1054.99 172.046C1054.39 172.307 1053.75 172.443 1053.11 172.445C1052.45 172.446 1051.8 172.307 1051.21 172.039C1050.5 171.731 1049.74 171.58 1048.97 171.595C1048.21 171.611 1047.45 171.793 1046.76 172.129C1046.37 172.338 1045.93 172.447 1045.48 172.449C1043.68 172.449 1042.18 170.631 1041.87 168.238C1042.23 167.975 1042.54 167.646 1042.77 167.267C1043.83 165.563 1045.46 164.471 1047.29 164.471C1049.11 164.471 1050.74 165.551 1051.8 167.233C1052.12 167.745 1052.56 168.165 1053.09 168.454C1053.62 168.743 1054.21 168.89 1054.81 168.882H1054.86C1056.29 168.874 1057.53 170.025 1058.13 171.704Z" fill="black"/>
<path d="M1131.62 106.316L1136.3 109.285L1133.46 104.118C1134.26 103.477 1135.26 103.123 1136.29 103.11H1136.36C1136.69 103.113 1137.01 103.089 1137.33 103.038L1138.92 104.043L1138.23 102.801C1139.35 102.41 1140.32 101.674 1141 100.698L1143.84 102.496L1142.05 99.2378C1143.71 97.2435 1145.95 96.0243 1148.41 96.0243C1151.36 96.0243 1153.99 97.7778 1155.69 100.513C1156.19 101.332 1156.9 102.003 1157.74 102.459C1158.59 102.914 1159.54 103.137 1160.5 103.106H1160.66C1163.92 103.106 1166.56 106.797 1166.56 111.358C1166.56 115.919 1163.92 119.606 1160.66 119.606C1159.94 119.604 1159.24 119.428 1158.6 119.095C1157.49 118.553 1156.28 118.261 1155.04 118.237C1153.81 118.213 1152.58 118.458 1151.45 118.955C1150.49 119.383 1149.45 119.605 1148.4 119.606C1147.36 119.606 1146.34 119.388 1145.39 118.967C1144.27 118.481 1143.06 118.243 1141.84 118.267C1140.61 118.291 1139.41 118.577 1138.31 119.106C1137.68 119.432 1136.99 119.604 1136.28 119.606C1133.02 119.606 1130.38 115.915 1130.38 111.358C1130.36 109.6 1130.79 107.866 1131.62 106.316Z" fill="#A3A1D0"/>
<path opacity="0.03" d="M1139.43 118.391C1141.13 118.067 1142.89 118.258 1144.48 118.94C1145.44 119.367 1146.47 119.587 1147.52 119.587C1148.57 119.587 1149.6 119.367 1150.55 118.94C1151.68 118.445 1152.91 118.201 1154.14 118.225C1155.38 118.249 1156.59 118.54 1157.7 119.08C1158.34 119.416 1159.04 119.593 1159.76 119.595C1162.65 119.595 1165.06 116.679 1165.56 112.822C1164.98 112.4 1164.49 111.87 1164.12 111.26C1162.42 108.528 1159.79 106.771 1156.84 106.771C1153.89 106.771 1151.29 108.506 1149.59 111.211C1149.08 112.027 1148.37 112.698 1147.53 113.16C1146.69 113.621 1145.74 113.857 1144.78 113.845H1144.71C1142.4 113.849 1140.41 115.697 1139.43 118.391Z" fill="black"/>
<path d="M929.91 404.933C929.919 406.221 929.793 407.506 929.534 408.767C929.481 409.004 929.429 409.238 929.376 409.463C927.972 415.089 924.014 419.206 919.291 419.469C919.133 419.469 918.975 419.469 918.81 419.469C913.816 419.469 909.594 415.16 908.198 409.226C908.161 409.068 908.127 408.91 908.089 408.752C907.824 407.491 907.691 406.206 907.694 404.918C907.694 396.88 912.672 390.367 918.81 390.367C924.947 390.367 929.91 396.895 929.91 404.933Z" fill="#3F3D56"/>
<path opacity="0.1" d="M929.91 404.933C929.919 406.221 929.793 407.506 929.534 408.767C929.481 409.004 929.429 409.238 929.376 409.463C929.207 409.463 929.045 409.463 928.875 409.445C927.652 409.376 926.437 409.209 925.24 408.944C924.179 409.275 923.095 409.527 921.997 409.697C921.155 409.823 920.307 409.903 919.457 409.934C919.171 409.934 918.885 409.934 918.599 409.934C917.581 409.935 916.564 409.867 915.555 409.731C913.924 409.514 912.322 409.116 910.78 408.545C909.933 408.826 909.071 409.057 908.198 409.238C908.161 409.08 908.127 408.921 908.089 408.763C907.824 407.503 907.691 406.217 907.694 404.929C907.694 396.891 912.672 390.378 918.81 390.378C924.947 390.378 929.91 396.895 929.91 404.933Z" fill="black"/>
<path d="M953.624 377.825C953.626 374.296 952.797 370.815 951.204 367.665L938.128 371.733L949.605 364.982C947.681 362.201 945.157 359.887 942.219 358.212C939.281 356.537 936.004 355.543 932.631 355.304C932.092 354.479 931.5 353.689 930.858 352.941L912.067 358.785L927.472 349.746C924.528 347.485 921.072 345.985 917.41 345.378C913.748 344.771 909.993 345.076 906.477 346.267C902.961 347.458 899.793 349.497 897.253 352.204C894.713 354.911 892.88 358.203 891.916 361.788L908.003 380.301L890.535 367.688C886.098 370.815 882.935 375.435 881.625 380.703C880.314 385.97 880.944 391.534 883.399 396.375C885.853 401.217 889.969 405.013 894.992 407.069C900.016 409.126 905.612 409.305 910.757 407.575C915.405 409.277 920.482 409.412 925.214 407.958C928.515 408.684 931.937 408.66 935.228 407.889C938.518 407.118 941.594 405.619 944.23 403.503C946.865 401.386 948.992 398.706 950.455 395.659C951.918 392.612 952.679 389.276 952.683 385.896C952.683 385.392 952.664 384.896 952.631 384.391C953.284 382.264 953.619 380.051 953.624 377.825Z" fill="#57B894"/>
<path opacity="0.1" d="M953.233 382.017C946.329 380.709 939.25 380.619 932.315 381.75C924.465 383.052 916.443 385.908 908.766 383.819C904.251 382.593 900.36 379.759 895.973 378.175C891.722 376.695 887.144 376.427 882.75 377.4C881.074 381.405 880.587 385.808 881.347 390.083C882.107 394.358 884.082 398.323 887.036 401.505C889.99 404.687 893.798 406.951 898.005 408.026C902.211 409.101 906.639 408.941 910.757 407.567C915.404 409.272 920.482 409.409 925.214 407.958C928.515 408.684 931.937 408.66 935.228 407.889C938.518 407.118 941.594 405.619 944.23 403.503C946.865 401.386 948.992 398.706 950.455 395.659C951.918 392.612 952.679 389.276 952.683 385.896C952.683 385.392 952.664 384.895 952.631 384.391C952.876 383.612 953.077 382.819 953.233 382.017Z" fill="black"/>
<path opacity="0.1" d="M505.098 467.031C520.852 467.031 533.623 463.151 533.623 458.365C533.623 453.578 520.852 449.698 505.098 449.698C489.344 449.698 476.573 453.578 476.573 458.365C476.573 463.151 489.344 467.031 505.098 467.031Z" fill="#6C63FF"/>
<path opacity="0.1" d="M774.816 352.573C816.891 352.573 851 350.309 851 347.518C851 344.726 816.891 342.463 774.816 342.463C732.74 342.463 698.631 344.726 698.631 347.518C698.631 350.309 732.74 352.573 774.816 352.573Z" fill="#6C63FF"/>
<g opacity="0.5">
<path opacity="0.5" d="M728.757 231.823C729.813 231.823 730.827 232.243 731.574 232.99C732.321 233.738 732.741 234.751 732.741 235.808V346.592H724.772V235.804C724.774 234.748 725.194 233.735 725.941 232.989C726.688 232.243 727.701 231.823 728.757 231.823Z" fill="#6C63FF"/>
<path opacity="0.5" d="M816.18 231.824C817.237 231.824 818.25 232.243 818.998 232.991C819.745 233.738 820.165 234.751 820.165 235.808V346.592H812.176V235.804C812.177 235.279 812.281 234.76 812.483 234.276C812.684 233.792 812.98 233.352 813.352 232.982C813.724 232.612 814.165 232.32 814.65 232.121C815.136 231.922 815.656 231.821 816.18 231.824Z" fill="#6C63FF"/>
<path opacity="0.5" d="M839.435 256.588C841.636 256.588 843.42 254.804 843.42 252.604C843.42 250.403 841.636 248.62 839.435 248.62H705.506C703.305 248.62 701.522 250.403 701.522 252.604C701.522 254.804 703.305 256.588 705.506 256.588H839.435Z" fill="#6C63FF"/>
<path opacity="0.5" d="M722.404 240.757C722.404 239.033 721.006 237.635 719.282 237.635C717.558 237.635 716.161 239.033 716.161 240.757V264.443C716.161 266.167 717.558 267.565 719.282 267.565C721.006 267.565 722.404 266.167 722.404 264.443V240.757Z" fill="#6C63FF"/>
<path opacity="0.5" d="M716.161 243.557C716.161 241.833 714.763 240.435 713.039 240.435C711.315 240.435 709.917 241.833 709.917 243.557V261.647C709.917 263.371 711.315 264.769 713.039 264.769C714.763 264.769 716.161 263.371 716.161 261.647V243.557Z" fill="#6C63FF"/>
<path opacity="0.5" d="M822.533 264.443C822.533 266.167 823.931 267.565 825.655 267.565C827.379 267.565 828.776 266.167 828.776 264.443V240.757C828.776 239.033 827.379 237.635 825.655 237.635C823.931 237.635 822.533 239.033 822.533 240.757V264.443Z" fill="#6C63FF"/>
<path opacity="0.5" d="M828.776 261.643C828.776 263.367 830.174 264.765 831.898 264.765C833.622 264.765 835.02 263.367 835.02 261.643V243.553C835.02 241.829 833.622 240.431 831.898 240.431C830.174 240.431 828.776 241.829 828.776 243.553V261.643Z" fill="#6C63FF"/>
</g>
<g opacity="0.5">
<path opacity="0.5" d="M764.514 278.192H780.804C782.572 278.192 784.268 278.895 785.518 280.145C786.768 281.395 787.471 283.091 787.471 284.859V312.843H757.863V284.859C757.863 283.093 758.563 281.4 759.81 280.15C761.057 278.901 762.748 278.196 764.514 278.192Z" fill="#6C63FF"/>
<path opacity="0.5" d="M774.816 310.329H770.482V324.773H774.816V310.329Z" fill="#6C63FF"/>
<path opacity="0.5" d="M766.149 326.576H761.816V341.02H766.149V326.576Z" fill="#6C63FF"/>
<path opacity="0.5" d="M784.204 326.576H779.871V341.02H784.204V326.576Z" fill="#6C63FF"/>
<path opacity="0.5" d="M787.455 323.686H757.847V327.659H787.455V323.686Z" fill="#6C63FF"/>
</g>
<path opacity="0.1" d="M636.525 443.561C726.26 443.561 799.004 438.227 799.004 431.647C799.004 425.067 726.26 419.733 636.525 419.733C546.791 419.733 474.047 425.067 474.047 431.647C474.047 438.227 546.791 443.561 636.525 443.561Z" fill="#6C63FF"/>
<path d="M678.592 389.22C678.592 389.22 689.784 394.274 695.2 394.274C695.2 394.274 700.976 395.718 704.22 397.165C707.463 398.612 720.106 399.329 720.106 399.329C720.106 399.329 734.91 404.745 736.714 407.274C738.518 409.804 743.933 398.255 743.933 398.255L741.043 391.035L686.533 380.565L678.592 389.22Z" fill="#FFB9B9"/>
<path opacity="0.05" d="M678.592 389.22C678.592 389.22 689.784 394.274 695.2 394.274C695.2 394.274 700.976 395.718 704.22 397.165C707.463 398.612 720.106 399.329 720.106 399.329C720.106 399.329 734.91 404.745 736.714 407.274C738.518 409.804 743.933 398.255 743.933 398.255L741.043 391.035L686.533 380.565L678.592 389.22Z" fill="black"/>
<path d="M733.835 405.11C733.835 405.11 740.694 414.129 737.808 419.553C734.922 424.976 736.004 424.969 737.808 425.329C739.612 425.69 749.722 427.859 750.808 419.914C751.894 411.969 754.059 394.278 754.059 394.278L739.235 392.831C739.235 392.831 743.224 406.192 733.835 405.11Z" fill="#737A9D"/>
<path d="M648.624 377.306L679.675 391.749C679.675 391.749 689.424 384.165 688.694 380.196L652.588 371.53L648.624 377.306Z" fill="#4C4C78"/>
<path opacity="0.1" d="M648.624 377.306L679.675 391.749C679.675 391.749 689.424 384.165 688.694 380.196L652.588 371.53L648.624 377.306Z" fill="black"/>
<path d="M778.969 396.082L775.706 404.024L768.137 405.82C766.017 404.05 763.748 402.465 761.357 401.082C757.282 398.729 751.922 396.428 746.847 396.792C746.847 396.792 726.628 393.541 725.545 392.086C725.545 392.086 712.545 389.196 709.659 389.557C708.267 389.73 705.275 388.729 702.553 387.643C699.631 386.467 697.02 385.224 697.02 385.224L706.408 370.42C707.503 370.891 708.63 371.284 709.78 371.596C713.369 372.647 719.827 374.012 729.157 374.012C744.322 374.012 765.263 389.537 765.263 389.537C765.263 389.537 765.471 389.608 765.827 389.714C767.396 390.188 771.867 391.306 773.929 389.537C776.439 387.416 778.969 396.082 778.969 396.082Z" fill="#FFB9B9"/>
<path opacity="0.1" d="M778.969 396.082L775.706 404.023L768.137 405.82C766.017 404.05 763.748 402.465 761.357 401.082C772.369 401.91 765.792 389.753 765.792 389.753H765.816C767.384 390.227 771.855 391.345 773.918 389.576C776.439 387.416 778.969 396.082 778.969 396.082Z" fill="black"/>
<path d="M761.4 401.388C761.4 401.388 770.133 413.635 766.459 420.533C762.784 427.431 764.161 427.428 766.459 427.89C768.757 428.353 781.631 431.11 783.008 420.996C784.067 413.22 783.137 398.294 782.651 391.816C782.62 391.407 782.508 391.008 782.321 390.643C782.135 390.278 781.877 389.953 781.564 389.688C781.251 389.423 780.889 389.223 780.498 389.1C780.106 388.976 779.695 388.932 779.286 388.969L766.514 390.145C766.514 390.145 773.353 402.769 761.4 401.388Z" fill="#737A9D"/>
<path d="M554.024 413.412L554.384 431.106L558.357 433.992H572.078L574.604 430.384V413.412L570.631 409.8H557.635L554.024 413.412Z" fill="#6C63FF"/>
<path opacity="0.2" d="M556.188 413.772C556.188 413.772 558.718 430.019 556.188 431.467L554.384 431.106L554.024 413.776L556.188 413.772Z" fill="white"/>
<path d="M585.796 412.329L588.686 409.439H602.412L605.302 412.329C605.302 412.329 608.914 422.8 606.023 429.659L602.765 432.91H589.039L585.788 430.02L585.796 412.329Z" fill="#6C63FF"/>
<path opacity="0.1" d="M554.024 413.412L554.384 431.106L558.357 433.992H572.078L574.604 430.384V413.412L570.631 409.8H557.635L554.024 413.412Z" fill="black"/>
<path opacity="0.1" d="M585.796 412.329L588.686 409.439H602.412L605.302 412.329C605.302 412.329 608.914 422.8 606.023 429.659L602.765 432.91H589.039L585.788 430.02L585.796 412.329Z" fill="black"/>
<path opacity="0.2" d="M589.039 413.051C589.039 413.051 591.929 425.69 589.039 430.02H585.788V412.329L589.039 413.051Z" fill="white"/>
<path d="M574.604 352.392C574.604 352.392 576.047 366.475 576.047 368.278C576.047 370.082 575.326 382.004 577.49 393.553C579.655 405.102 576.047 419.545 576.047 419.545H587.961L593.016 380.549L589.404 359.969L587.961 353.471L574.604 352.392Z" fill="#FFB9B9"/>
<path opacity="0.05" d="M574.604 352.392C574.604 352.392 576.047 366.475 576.047 368.278C576.047 370.082 575.326 382.004 577.49 393.553C579.655 405.102 576.047 419.545 576.047 419.545H587.961L593.016 380.549L589.404 359.969L587.961 353.471L574.604 352.392Z" fill="black"/>
<path d="M572.439 316.647C572.439 316.647 556.553 317.008 569.188 343.365C569.188 343.365 572.439 354.196 572.439 356.004C572.439 357.812 588.686 357.808 590.478 356.004C592.271 354.2 587.588 339.396 587.588 332.533C587.588 325.671 582.91 314.482 572.439 316.647Z" fill="#CBCDDA"/>
<path opacity="0.05" d="M572.439 316.647C572.439 316.647 556.553 317.008 569.188 343.365C569.188 343.365 572.439 354.196 572.439 356.004C572.439 357.812 588.686 357.808 590.478 356.004C592.271 354.2 587.588 339.396 587.588 332.533C587.588 325.671 582.91 314.482 572.439 316.647Z" fill="black"/>
<path d="M553.302 301.114C553.302 301.114 567.027 315.918 578.576 305.086L577.133 343.361C577.133 343.361 558.357 320.616 545.369 322.42L553.302 301.114Z" fill="#FFB9B9"/>
<path opacity="0.1" d="M709.765 371.639C709.216 375.871 707.49 384.78 702.537 387.667C699.616 386.49 697.004 385.247 697.004 385.247L706.392 370.443C707.487 370.921 708.614 371.321 709.765 371.639Z" fill="black"/>
<path d="M708.922 369.349C708.922 369.349 707.839 387.043 699.173 388.486L646.827 379.043C644.287 378.581 641.898 377.504 639.871 375.906C637.757 374.243 635.165 371.984 633.631 369.914C632.8 368.784 632.298 367.706 632.38 366.816C632.741 362.843 648.627 353.455 643.212 336.847C643.982 336.237 644.838 335.746 645.753 335.388C650.274 333.51 660.682 332.129 675.706 347.678C675.706 347.698 703.506 370.086 708.922 369.349Z" fill="#4C4C78"/>
<path d="M567.384 414.855L567.745 432.549L571.714 435.439H585.435L587.965 431.827V414.855L583.992 411.247H570.992L567.384 414.855Z" fill="#6C63FF"/>
<path opacity="0.2" d="M569.549 415.231C569.549 415.231 572.078 431.479 569.549 432.926L567.745 432.565L567.384 415.231H569.549Z" fill="white"/>
<path d="M607.102 413.412L609.992 410.521H623.718L626.608 413.412C626.608 413.412 630.22 423.882 627.329 430.741L624.078 433.992H610.353L607.102 431.102V413.412Z" fill="#6C63FF"/>
<path opacity="0.2" d="M610.349 414.133C610.349 414.133 613.239 426.773 610.349 431.102H607.098V413.412L610.349 414.133Z" fill="white"/>
<path d="M587.863 420.275H607.396C608.926 420.275 610.165 421.647 610.165 423.345C610.165 425.039 608.926 426.416 607.396 426.416H587.863C586.204 426.416 584.918 424.812 585.118 422.988C585.278 421.439 586.463 420.275 587.863 420.275Z" fill="#6C63FF"/>
<path opacity="0.1" d="M644.29 363.945C640.427 366.651 636.357 368.424 633.627 369.933C632.796 368.804 632.294 367.725 632.376 366.835C632.737 362.863 648.624 353.475 643.208 336.867C643.978 336.257 644.834 335.765 645.749 335.408C646.597 335.39 647.441 335.274 648.263 335.063C648.263 335.063 651.51 358.89 644.29 363.945Z" fill="black"/>
<path d="M563.231 329.102C563.231 329.102 568.647 334.518 573.882 337.949C578.714 341.114 570.09 309.243 570.09 309.243C570.09 309.243 575.439 304.929 578.58 302.369C580.678 300.643 583.351 299.774 586.063 299.937C593.29 300.404 606.529 303.443 617.212 318.094C632.737 339.396 646.82 335.063 646.82 335.063C646.82 335.063 650.071 358.894 642.847 363.949C635.624 369.004 627.682 370.808 629.122 373.698C630.561 376.588 622.624 359.616 604.569 356.729C586.514 353.843 566.655 341.204 567.02 335.067C567.024 335.063 561.788 330.918 563.231 329.102Z" fill="#CBCDDA"/>
<path opacity="0.1" d="M559.439 310.525C559.437 309.482 559.346 308.44 559.165 307.412C554.435 305.059 555.106 301.859 555.106 301.859L547.161 323.161C550.067 322.769 553.263 323.584 556.471 325.122C560.694 321.784 559.439 316.286 559.439 310.525Z" fill="black"/>
<path d="M543.553 328.204C553.524 328.204 561.608 320.12 561.608 310.149C561.608 300.178 553.524 292.094 543.553 292.094C533.581 292.094 525.498 300.178 525.498 310.149C525.498 320.12 533.581 328.204 543.553 328.204Z" fill="#FFB9B9"/>
<path opacity="0.1" d="M527.149 314.22C526.816 315.29 526.302 316.392 525.333 316.965C524.157 317.663 522.533 317.318 521.486 316.416C520.439 315.514 519.875 314.165 519.58 312.816C519.157 310.862 519.224 308.835 519.776 306.914C520.247 305.286 521.059 303.777 521.4 302.11C521.765 300.337 521.58 298.482 521.988 296.718C522.541 294.326 524.118 292.322 525.655 290.404C526.137 289.672 526.761 289.045 527.491 288.56C528.221 288.074 529.041 287.741 529.902 287.58L537.459 285.302C538.892 284.822 540.364 284.47 541.859 284.251C543.781 284.054 545.722 284.225 547.58 284.753C549.06 285.125 550.464 285.751 551.729 286.604C552.983 287.535 554.087 288.653 555.004 289.918C559 295.141 561.278 303.686 565.4 308.827C563.773 309.329 562.145 307.651 560.518 308.161C560.286 308.261 560.029 308.281 559.784 308.22C559.542 308.088 559.353 307.878 559.247 307.624C557.813 305.118 555.556 303.187 552.859 302.157C550.859 301.4 548.153 301.404 547.059 303.239C546.318 304.478 546.616 306.043 546.812 307.475C547.008 308.906 546.973 310.612 545.839 311.494C545.213 311.917 544.484 312.164 543.729 312.208C540.212 312.669 536.636 312.319 533.275 311.184C532.098 310.792 530.902 309.565 529.659 309.957C527.98 310.486 527.592 312.796 527.149 314.22Z" fill="black"/>
<path d="M526.753 313.824C526.42 314.894 525.906 315.996 524.937 316.569C523.761 317.267 522.137 316.922 521.09 316.02C520.043 315.118 519.478 313.769 519.184 312.42C518.761 310.466 518.828 308.438 519.38 306.518C519.851 304.89 520.663 303.38 521.004 301.714C521.369 299.941 521.184 298.086 521.592 296.322C522.145 293.929 523.722 291.925 525.259 290.008C525.741 289.276 526.365 288.649 527.095 288.163C527.824 287.678 528.644 287.345 529.506 287.184L537.063 284.906C538.496 284.427 539.968 284.077 541.463 283.859C543.384 283.662 545.326 283.832 547.184 284.361C548.664 284.733 550.068 285.359 551.333 286.212C552.587 287.143 553.691 288.261 554.608 289.525C558.604 294.749 560.882 303.294 565.004 308.435C563.376 308.937 561.749 307.259 560.122 307.769C559.89 307.868 559.632 307.889 559.388 307.827C559.143 307.697 558.951 307.487 558.843 307.231C557.409 304.726 555.152 302.794 552.455 301.765C550.455 301.008 547.749 301.012 546.655 302.847C545.914 304.086 546.212 305.651 546.408 307.082C546.604 308.514 546.569 310.22 545.435 311.102C544.809 311.525 544.08 311.772 543.325 311.816C539.808 312.277 536.232 311.927 532.871 310.792C531.694 310.4 530.498 309.173 529.255 309.565C527.584 310.09 527.196 312.4 526.753 313.824Z" fill="#B96B6B"/>
<g opacity="0.1">
<path opacity="0.1" d="M571.314 308.259L570.09 309.247C570.09 309.247 575.145 327.925 575.345 335.263C577.926 334.565 572.961 314.58 571.314 308.259Z" fill="black"/>
<path opacity="0.1" d="M643.549 361.059C636.33 366.114 628.384 367.918 629.824 370.808C631.263 373.698 623.326 356.725 605.271 353.839C588.333 351.129 569.808 339.839 567.879 333.384C565.173 331.071 563.204 329.106 563.204 329.106C561.761 330.91 566.996 335.063 566.996 335.063C566.635 341.2 586.494 353.839 604.545 356.725C622.596 359.612 630.541 376.584 629.098 373.694C627.655 370.804 635.596 368.988 642.824 363.945C644.89 362.498 646.098 359.514 646.773 355.988C646.075 358.22 645.039 360.027 643.549 361.059Z" fill="black"/>
</g>
<path d="M607.102 395.722C606.02 397.165 605.298 411.969 605.298 411.969C605.298 411.969 609.612 433.271 596.278 431.106C582.945 428.941 594.474 413.776 594.474 413.776L592.671 392.835C585.812 374.796 587.255 361.784 587.255 361.784L585.973 349.992L585.447 345.176L600.973 341.565C600.549 342.129 600.729 345.651 601.11 349.741C601.702 356.149 602.776 363.949 602.776 363.949C606.016 367.557 608.184 394.275 607.102 395.722Z" fill="#FFB9B9"/>
<path opacity="0.1" d="M585.075 309.067C585.075 309.067 569.188 309.427 581.824 335.784C581.824 335.784 585.075 346.616 585.075 348.424C585.075 350.231 601.322 350.227 603.114 348.424C604.906 346.62 600.224 331.816 600.224 324.953C600.224 318.09 595.545 306.898 585.075 309.067Z" fill="black"/>
<path opacity="0.1" d="M601.098 349.741C597.725 350.663 589.459 350.745 585.957 349.992L585.431 345.176L600.957 341.565C600.541 342.125 600.721 345.647 601.098 349.741Z" fill="black"/>
<path d="M584.353 309.067C584.353 309.067 568.467 309.427 581.102 335.784C581.102 335.784 584.353 346.616 584.353 348.424C584.353 350.231 600.6 350.227 602.392 348.424C604.184 346.62 599.502 331.816 599.502 324.953C599.502 318.09 594.823 306.898 584.353 309.067Z" fill="#CBCDDA"/>
<g opacity="0.5">
<path opacity="0.5" d="M480.427 365.589L468.929 365.824L467.055 368.405V377.322L469.4 378.965H480.427L482.777 376.385V367.938L480.427 365.589Z" fill="#6C63FF"/>
<path opacity="0.2" d="M480.196 366.996C480.196 366.996 469.635 368.639 468.698 366.996L468.933 365.82L480.196 365.584V366.996Z" fill="white"/>
<path opacity="0.5" d="M481.369 391.4L483.247 393.279V402.196L481.369 404.075C481.369 404.075 474.565 406.428 470.106 404.545L467.992 402.432V393.514L469.871 391.4H481.369Z" fill="#6C63FF"/>
<path opacity="0.2" d="M480.898 393.514C480.898 393.514 472.686 395.392 469.871 393.514V391.4H481.369L480.898 393.514Z" fill="white"/>
<path opacity="0.5" d="M476.91 378.902V391.596C476.883 392.099 476.657 392.57 476.283 392.908C475.909 393.245 475.417 393.421 474.914 393.396C474.411 393.421 473.918 393.245 473.544 392.908C473.17 392.57 472.945 392.099 472.918 391.596V378.902C472.918 377.823 473.961 376.988 475.145 377.114C475.608 377.141 476.045 377.339 476.37 377.669C476.696 377.999 476.888 378.438 476.91 378.902Z" fill="#6C63FF"/>
<path opacity="0.5" d="M498.843 365.949L487.345 366.184L485.467 368.765V377.682L487.816 379.326H498.843L501.188 376.745V368.298L498.843 365.949Z" fill="#6C63FF"/>
<path opacity="0.2" d="M498.608 367.361C498.608 367.361 488.047 369.004 487.11 367.361L487.345 366.184L498.608 365.949V367.361Z" fill="white"/>
<path opacity="0.5" d="M499.78 391.765L501.659 393.643V402.561L499.78 404.439C499.78 404.439 492.976 406.792 488.518 404.91L486.404 402.796V393.874L488.282 391.761L499.78 391.765Z" fill="#6C63FF"/>
<path opacity="0.2" d="M499.314 393.874C499.314 393.874 491.102 395.753 488.286 393.874V391.761H499.784L499.314 393.874Z" fill="white"/>
<path opacity="0.5" d="M495.314 379.263V391.957C495.286 392.46 495.061 392.931 494.687 393.269C494.313 393.606 493.821 393.781 493.318 393.757C492.815 393.781 492.322 393.606 491.948 393.269C491.574 392.931 491.349 392.46 491.322 391.957V379.263C491.322 378.184 492.365 377.349 493.549 377.474C494.012 377.502 494.449 377.7 494.774 378.03C495.1 378.36 495.292 378.799 495.314 379.263Z" fill="#6C63FF"/>
<path opacity="0.5" d="M522.286 372.741L512.82 372.933L511.275 375.059V382.4L513.208 383.749H522.286L524.216 381.624V374.671L522.286 372.741Z" fill="#6C63FF"/>
<path opacity="0.2" d="M522.09 373.898C522.09 373.898 513.396 375.251 512.624 373.898L512.816 372.933L522.086 372.741L522.09 373.898Z" fill="white"/>
<path opacity="0.5" d="M523.059 393.988L524.604 395.533V402.875L523.059 404.42C523.059 404.42 517.459 406.353 513.788 404.812L512.047 403.075V395.726L513.592 393.988H523.059Z" fill="#6C63FF"/>
<path opacity="0.2" d="M522.671 395.726C522.671 395.726 515.91 397.271 513.592 395.726V393.988H523.059L522.671 395.726Z" fill="white"/>
<path opacity="0.5" d="M519.388 383.698V394.149C519.364 394.562 519.178 394.948 518.87 395.224C518.562 395.501 518.158 395.644 517.745 395.624C517.331 395.644 516.925 395.499 516.618 395.222C516.31 394.944 516.124 394.555 516.102 394.141V383.698C516.116 383.477 516.175 383.261 516.277 383.065C516.379 382.868 516.521 382.695 516.694 382.557C516.867 382.418 517.067 382.317 517.281 382.261C517.495 382.204 517.719 382.193 517.937 382.228C518.318 382.25 518.677 382.413 518.945 382.685C519.213 382.956 519.371 383.317 519.388 383.698Z" fill="#6C63FF"/>
<path opacity="0.5" d="M537.443 373.035L527.976 373.231L526.431 375.353V382.694L528.365 384.047H537.443L539.376 381.921V374.969L537.443 373.035Z" fill="#6C63FF"/>
<path opacity="0.2" d="M537.251 374.196C537.251 374.196 528.557 375.549 527.784 374.196L527.976 373.231L537.247 373.039L537.251 374.196Z" fill="white"/>
<path opacity="0.5" d="M538.216 394.286L539.761 395.832V403.173L538.216 404.718C538.216 404.718 532.616 406.651 528.945 405.11L527.208 403.373V396.016L528.753 394.279L538.216 394.286Z" fill="#6C63FF"/>
<path opacity="0.2" d="M537.831 396.016C537.831 396.016 531.071 397.561 528.753 396.016V394.279H538.216L537.831 396.016Z" fill="white"/>
<path opacity="0.5" d="M534.529 383.996V394.447C534.507 394.861 534.322 395.25 534.014 395.527C533.706 395.805 533.301 395.95 532.886 395.929C532.472 395.95 532.067 395.805 531.759 395.527C531.451 395.25 531.265 394.861 531.243 394.447V383.996C531.257 383.775 531.317 383.559 531.419 383.363C531.52 383.166 531.662 382.993 531.835 382.854C532.008 382.716 532.208 382.615 532.422 382.558C532.636 382.502 532.86 382.491 533.078 382.525C533.459 382.548 533.818 382.711 534.086 382.983C534.354 383.254 534.512 383.615 534.529 383.996Z" fill="#6C63FF"/>
</g>
<g opacity="0.8">
<path opacity="0.8" d="M496.953 436.015C496.953 436.015 491.396 434.133 488.718 439.031C488.012 440.359 487.653 441.843 487.673 443.346C487.694 444.85 488.094 446.323 488.835 447.631C490.592 450.808 494.212 454.929 501.071 454.564C506.89 454.255 508.823 449.812 509.349 445.682C509.55 444.133 509.35 442.559 508.768 441.109C508.187 439.66 507.243 438.384 506.027 437.403C504.811 436.423 503.363 435.771 501.823 435.51C500.283 435.25 498.702 435.388 497.231 435.914L496.953 436.015Z" fill="#6C63FF"/>
<path opacity="0.1" d="M490.016 448.067C489.274 446.759 488.874 445.285 488.854 443.782C488.833 442.278 489.192 440.794 489.898 439.467C492.572 434.569 498.133 436.451 498.133 436.451L498.42 436.349C500.538 435.582 502.867 435.634 504.949 436.494C503.799 435.808 502.51 435.386 501.177 435.258C499.844 435.131 498.499 435.301 497.239 435.757L496.953 435.859C496.953 435.859 491.396 433.976 488.718 438.874C488.012 440.202 487.653 441.686 487.673 443.19C487.694 444.693 488.094 446.167 488.835 447.474C490.012 449.565 491.972 452.063 495.11 453.424C492.955 452.135 491.194 450.283 490.016 448.067Z" fill="white"/>
<path opacity="0.2" d="M494.082 438.369C494.082 438.369 496.141 439.988 501.141 438.369H494.082Z" fill="black"/>
<path opacity="0.8" d="M493.643 426.604C493.643 426.604 497.172 436.172 496.882 438.674L499.678 438.38C499.678 438.38 494.972 429.992 496.149 426.616L493.643 426.604Z" fill="#6C63FF"/>
<path opacity="0.2" d="M493.643 426.604C493.643 426.604 497.172 436.172 496.882 438.674L499.678 438.38C499.678 438.38 494.972 429.992 496.149 426.616L493.643 426.604Z" fill="black"/>
<path opacity="0.8" d="M508.059 427.388C508.059 427.388 502.498 424.545 500.012 426.894C497.525 429.243 497.141 435.247 497.141 435.247C497.141 435.247 506.208 436.498 508.059 427.388Z" fill="#6C63FF"/>
<path opacity="0.1" d="M508.059 427.388C508.059 427.388 502.498 424.545 500.012 426.894C497.525 429.243 497.141 435.247 497.141 435.247C497.141 435.247 506.208 436.498 508.059 427.388Z" fill="white"/>
<path opacity="0.8" d="M497.141 435.231C497.141 435.231 498.6 428.263 508.059 427.388" stroke="#6C63FF" stroke-miterlimit="10"/>
</g>
<path d="M520.412 444.679C520.412 444.679 514.855 442.796 512.176 447.694C511.471 449.022 511.112 450.506 511.132 452.009C511.153 453.513 511.552 454.986 512.294 456.294C514.051 459.471 517.671 463.592 524.529 463.228C530.349 462.918 532.282 458.475 532.808 454.345C533.009 452.796 532.809 451.222 532.227 449.772C531.645 448.323 530.701 447.047 529.485 446.066C528.269 445.086 526.822 444.434 525.282 444.174C523.742 443.913 522.161 444.052 520.69 444.577L520.412 444.679Z" fill="#6C63FF"/>
<path opacity="0.1" d="M513.486 456.733C512.745 455.426 512.345 453.952 512.324 452.449C512.304 450.945 512.663 449.461 513.369 448.133C516.043 443.235 521.604 445.118 521.604 445.118L521.89 445.016C524.009 444.249 526.337 444.301 528.42 445.161C527.269 444.475 525.981 444.053 524.648 443.925C523.314 443.798 521.969 443.968 520.71 444.424L520.423 444.526C520.423 444.526 514.867 442.643 512.188 447.541C511.483 448.869 511.123 450.353 511.144 451.856C511.164 453.36 511.564 454.833 512.306 456.141C513.482 458.231 515.443 460.729 518.58 462.09C516.426 460.802 514.665 458.95 513.486 456.733Z" fill="white"/>
<path opacity="0.2" d="M517.553 447.031C517.553 447.031 519.612 448.651 524.612 447.031H517.553Z" fill="black"/>
<path d="M517.11 435.259C517.11 435.259 520.639 444.827 520.349 447.329L523.145 447.035C523.145 447.035 518.439 438.647 519.616 435.271L517.11 435.259Z" fill="#6C63FF"/>
<path opacity="0.2" d="M517.11 435.259C517.11 435.259 520.639 444.827 520.349 447.329L523.145 447.035C523.145 447.035 518.439 438.647 519.616 435.271L517.11 435.259Z" fill="black"/>
<path d="M531.529 436.055C531.529 436.055 525.969 433.212 523.482 435.561C520.996 437.91 520.612 443.914 520.612 443.914C520.612 443.914 529.678 445.161 531.529 436.055Z" fill="#6C63FF"/>
<path opacity="0.1" d="M531.529 436.055C531.529 436.055 525.969 433.212 523.482 435.561C520.996 437.91 520.612 443.914 520.612 443.914C520.612 443.914 529.678 445.161 531.529 436.055Z" fill="white"/>
<path d="M520.612 443.914C520.612 443.914 522.071 436.945 531.529 436.071" stroke="#6C63FF" stroke-miterlimit="10"/>
<path d="M475.706 421.965C475.706 421.965 476.251 421.357 475.227 421.114V420.114H475.843C475.843 418.905 475.427 417.733 474.666 416.794C473.905 415.854 472.845 415.204 471.663 414.953V413.741H471.824V412.173H467.863V413.741H467.976V414.969C466.81 415.234 465.768 415.887 465.021 416.822C464.274 417.757 463.867 418.917 463.867 420.114H464.416V421.075C464.416 421.075 463.114 421.69 464.416 422.788C465.718 423.886 465.514 424.706 465.514 424.706C465.514 424.706 464.965 426.761 463.871 427.035V446.153C463.871 447.279 464.318 448.36 465.115 449.156C465.911 449.953 466.991 450.4 468.118 450.4H471.475C472.598 450.396 473.673 449.947 474.466 449.152C475.259 448.357 475.705 447.28 475.706 446.157V427.035C475.706 427.035 473.788 425.596 474.137 424.706C474.592 423.755 475.117 422.839 475.706 421.965Z" fill="#6C63FF"/>
<path d="M341 405.41C341 418.636 251.457 448.776 141 448.776C30.5431 448.776 -59 418.636 -59 405.41C-59 392.184 30.5431 400.879 141 400.879C251.457 400.879 341 392.184 341 405.41Z" fill="#3F3D56"/>
<path opacity="0.1" d="M341 405.41C341 418.636 251.457 448.776 141 448.776C30.5431 448.776 -59 418.636 -59 405.41C-59 392.184 30.5431 400.879 141 400.879C251.457 400.879 341 392.184 341 405.41Z" fill="black"/>
<path d="M-2.04206 229.358C2.605 229.358 6.37218 225.591 6.37218 220.944C6.37218 216.297 2.605 212.53 -2.04206 212.53C-6.68912 212.53 -10.4563 216.297 -10.4563 220.944C-10.4563 225.591 -6.68912 229.358 -2.04206 229.358Z" fill="#A3A1D0"/>
<path d="M34.8511 298.614C39.4982 298.614 43.2654 294.847 43.2654 290.2C43.2654 285.552 39.4982 281.785 34.8511 281.785C30.2041 281.785 26.4369 285.552 26.4369 290.2C26.4369 294.847 30.2041 298.614 34.8511 298.614Z" fill="#A3A1D0"/>
<path d="M6.37213 281.138C11.0192 281.138 14.7864 277.371 14.7864 272.724C14.7864 268.077 11.0192 264.31 6.37213 264.31C1.72507 264.31 -2.04211 268.077 -2.04211 272.724C-2.04211 277.371 1.72507 281.138 6.37213 281.138Z" fill="#A3A1D0"/>
<path d="M9.05596 392.155C8.90743 391.913 5.40507 386.065 4.19084 373.921C3.07712 362.78 3.79327 344.001 13.5323 317.806C31.9827 268.181 9.28036 228.14 9.04838 227.741L10.1684 227.092C10.2272 227.193 16.0853 237.401 19.5459 253.657C24.1185 275.209 22.4535 297.618 14.7459 318.257C-3.67286 367.797 10.0205 391.25 10.1608 391.481L9.05596 392.155Z" fill="#CFCCE0"/>
<path d="M1.84141 225.475C0.0492115 225.475 -1.70273 224.943 -3.19288 223.948C-4.68304 222.952 -5.84449 221.537 -6.53033 219.881C-7.21618 218.225 -7.39561 216.403 -7.04597 214.645C-6.69633 212.888 -5.83331 211.273 -4.56604 210.006C-3.29876 208.738 -1.68416 207.875 0.073596 207.526C1.83135 207.176 3.65332 207.356 5.30909 208.041C6.96486 208.727 8.38007 209.889 9.37576 211.379C10.3715 212.869 10.9029 214.621 10.9029 216.413C10.9002 218.816 9.94464 221.119 8.24587 222.818C6.54709 224.516 4.24384 225.472 1.84141 225.475ZM1.84141 208.646C0.30524 208.646 -1.19643 209.102 -2.4737 209.955C-3.75098 210.809 -4.74649 212.022 -5.33436 213.441C-5.92222 214.86 -6.07604 216.422 -5.77634 217.928C-5.47665 219.435 -4.73691 220.819 -3.65068 221.905C-2.56444 222.992 -1.18051 223.731 0.326143 224.031C1.83279 224.331 3.39448 224.177 4.81371 223.589C6.23294 223.001 7.44598 222.006 8.29942 220.728C9.15287 219.451 9.60841 217.949 9.60841 216.413C9.60605 214.354 8.78699 212.38 7.3309 210.924C5.87482 209.468 3.90062 208.649 1.84141 208.646Z" fill="#CFCCE0"/>
<path d="M28.3786 255.895C33.0257 255.895 36.7928 252.128 36.7928 247.481C36.7928 242.834 33.0257 239.067 28.3786 239.067C23.7315 239.067 19.9644 242.834 19.9644 247.481C19.9644 252.128 23.7315 255.895 28.3786 255.895Z" fill="#CFCCE0"/>
<path d="M10.2557 277.255C8.46348 277.255 6.71154 276.723 5.22139 275.727C3.73124 274.732 2.56981 273.317 1.88398 271.661C1.19814 270.005 1.01869 268.183 1.36834 266.425C1.71798 264.668 2.581 263.053 3.84827 261.786C5.11554 260.518 6.73016 259.655 8.48792 259.306C10.2457 258.956 12.0676 259.136 13.7234 259.821C15.3792 260.507 16.7944 261.669 17.7901 263.159C18.7857 264.649 19.3172 266.401 19.3172 268.193C19.3145 270.596 18.3589 272.899 16.6602 274.598C14.9614 276.296 12.6581 277.252 10.2557 277.255ZM10.2557 260.426C8.71951 260.426 7.21785 260.882 5.94057 261.735C4.6633 262.589 3.66778 263.802 3.07992 265.221C2.49205 266.64 2.33824 268.202 2.63793 269.708C2.93762 271.215 3.67736 272.599 4.76359 273.685C5.84983 274.771 7.23377 275.511 8.74041 275.811C10.2471 276.111 11.8087 275.957 13.228 275.369C14.6472 274.781 15.8602 273.785 16.7137 272.508C17.5671 271.231 18.0227 269.729 18.0227 268.193C18.0204 266.134 17.2013 264.16 15.7452 262.704C14.2891 261.247 12.3149 260.428 10.2557 260.426V260.426Z" fill="#CFCCE0"/>
<path d="M32.2622 294.73C30.47 294.73 28.718 294.199 27.2279 293.203C25.7377 292.207 24.5763 290.792 23.8904 289.136C23.2046 287.481 23.0252 285.659 23.3748 283.901C23.7244 282.143 24.5875 280.529 25.8547 279.261C27.122 277.994 28.7366 277.131 30.4944 276.781C32.2521 276.432 34.0741 276.611 35.7299 277.297C37.3856 277.983 38.8008 279.144 39.7965 280.634C40.7922 282.125 41.3237 283.877 41.3237 285.669C41.321 288.071 40.3654 290.374 38.6666 292.073C36.9679 293.772 34.6646 294.728 32.2622 294.73ZM32.2622 277.902C30.726 277.902 29.2243 278.357 27.9471 279.211C26.6698 280.064 25.6743 281.277 25.0864 282.696C24.4986 284.116 24.3447 285.677 24.6444 287.184C24.9441 288.691 25.6838 290.075 26.7701 291.161C27.8563 292.247 29.2403 292.987 30.7469 293.287C32.2536 293.586 33.8152 293.432 35.2345 292.845C36.6537 292.257 37.8667 291.261 38.7202 289.984C39.5736 288.707 40.0292 287.205 40.0292 285.669C40.0269 283.61 39.2078 281.635 37.7517 280.179C36.2956 278.723 34.3214 277.904 32.2622 277.902Z" fill="#CFCCE0"/>
<path d="M3.78314 321.267C8.4302 321.267 12.1974 317.5 12.1974 312.853C12.1974 308.206 8.4302 304.439 3.78314 304.439C-0.863917 304.439 -4.6311 308.206 -4.6311 312.853C-4.6311 317.5 -0.863917 321.267 3.78314 321.267Z" fill="#CFCCE0"/>
<path d="M14.1391 392.465C14.1391 392.465 5.72488 371.753 30.9676 356.219L14.1391 392.465Z" fill="#CFCCE0"/>
<path d="M3.79091 392.089C3.79091 392.089 -0.0384884 370.064 -29.6774 370.252L3.79091 392.089Z" fill="#CFCCE0"/>
<path d="M307.562 400.232H164.342C164.342 400.232 161.439 357.653 178.616 357.169C195.792 356.685 193.857 376.039 215.388 349.428C236.92 322.816 263.047 324.268 266.434 339.993C269.821 355.718 259.902 368.298 278.047 364.427C296.191 360.556 322.319 370.717 307.562 400.232Z" fill="#A3A1D0"/>
<path d="M233.534 400.242L233.051 400.222C234.178 372.189 240.049 354.177 244.776 344.004C249.908 332.957 254.854 328.485 254.903 328.441L255.225 328.803C255.176 328.846 250.288 333.274 245.197 344.246C240.496 354.376 234.657 372.314 233.534 400.242Z" fill="#F2F2F2"/>
<path d="M285.369 400.3L284.905 400.164C290.498 380.967 303.669 368.846 303.801 368.726L304.126 369.084C303.995 369.203 290.922 381.238 285.369 400.3Z" fill="#F2F2F2"/>
<path d="M186.9 400.265L186.421 400.199C188.318 386.513 184.89 375.895 181.681 369.397C178.205 362.362 174.24 358.52 174.2 358.482L174.535 358.132C174.575 358.171 178.602 362.072 182.114 369.183C185.354 375.741 188.814 386.458 186.9 400.265Z" fill="#F2F2F2"/>
<path d="M326.999 400.879H148.895L148.854 400.276C148.751 398.775 146.479 363.373 157.95 350.741C160.514 347.917 163.603 346.435 167.131 346.335C174.608 346.123 179.307 348.923 183.097 351.171C190.24 355.409 194.96 358.209 212.118 337.002C230.705 314.028 250.76 309.086 262.29 311.834C269.739 313.61 274.873 318.63 276.376 325.606C277.798 332.212 277.345 338.419 276.981 343.406C276.591 348.743 276.284 352.958 278.475 354.868C280.305 356.462 283.957 356.607 289.967 355.324C302.192 352.716 319.251 354.948 327.813 366.01C332.419 371.962 336.048 382.781 327.178 400.521L326.999 400.879ZM150.11 399.585H326.198C332.808 386.174 333.014 374.845 326.789 366.803C318.935 356.654 302.456 353.983 290.237 356.59C283.707 357.983 279.816 357.753 277.625 355.844C274.945 353.509 275.274 349.009 275.69 343.312C276.048 338.407 276.494 332.303 275.11 325.879C273.717 319.409 268.934 314.749 261.989 313.093C250.828 310.431 231.333 315.311 213.124 337.816C195.263 359.892 189.882 356.702 182.437 352.285C178.6 350.009 174.244 347.429 167.168 347.629C164.005 347.718 161.227 349.058 158.908 351.611C148.599 362.964 149.858 394.799 150.11 399.585Z" fill="#CFCCE0"/>
<path d="M141 429.358C251.457 429.358 341 418.636 341 405.41C341 392.184 251.457 381.462 141 381.462C30.5431 381.462 -59 392.184 -59 405.41C-59 418.636 30.5431 429.358 141 429.358Z" fill="#3F3D56"/>
<path d="M145.398 92.1254C145.398 92.1254 135.399 88.5544 128.971 102.838C122.544 117.122 112.545 132.834 112.545 132.834L118.258 134.263C118.258 134.263 119.687 124.264 123.258 122.836L121.829 135.691C121.829 135.691 164.681 150.689 183.964 134.263L183.25 129.263C183.25 129.263 186.107 129.977 186.107 134.263L188.249 132.12C188.249 132.12 186.107 127.835 179.679 122.121C175.46 118.371 174.01 111.237 173.512 106.776C173.139 103.051 171.649 99.5265 169.237 96.6636C164.965 91.7131 157.182 86.4515 145.398 92.1254Z" fill="#2F2E41"/>
<path d="M134.851 148.128L124.495 135.183L116.728 108.646L146.502 76.9309C146.502 76.9309 152.974 52.3354 147.149 53.6299C141.324 54.9244 140.029 73.0474 140.029 73.0474L102.489 102.174C102.489 102.174 106.372 142.95 117.375 157.19L125.79 183.727L134.851 148.128Z" fill="#FFB9B9"/>
<path d="M163.33 148.128L173.686 135.183L181.453 108.646L151.68 76.9309C151.68 76.9309 145.207 52.3354 151.032 53.6299C156.858 54.9244 158.152 73.0474 158.152 73.0474L195.693 102.174C195.693 102.174 191.809 142.95 180.806 157.19L172.392 183.727L163.33 148.128Z" fill="#FFB9B9"/>
<path d="M149.091 137.125C158.385 137.125 165.919 129.591 165.919 120.297C165.919 111.003 158.385 103.468 149.091 103.468C139.797 103.468 132.262 111.003 132.262 120.297C132.262 129.591 139.797 137.125 149.091 137.125Z" fill="#FFB9B9"/>
<path d="M141.324 129.358C141.324 129.358 141.971 142.95 138.087 147.481C134.204 152.012 130.32 175.313 149.091 175.96C167.861 176.607 165.919 156.543 165.919 156.543L162.036 145.539C162.036 145.539 156.21 137.125 158.152 129.358H141.324Z" fill="#FFB9B9"/>
<path d="M123.848 280.167L137.764 284.374C137.764 284.374 149.091 277.578 149.091 284.051C149.091 290.523 145.207 298.937 146.502 304.763C147.796 310.588 150.385 324.827 146.502 324.827C142.618 324.827 134.851 299.585 134.851 299.585L121.906 292.465L123.848 280.167Z" fill="#FFB9B9"/>
<path d="M141.324 370.782L136.146 390.847C136.146 390.847 131.615 396.672 136.146 399.261C138.272 400.476 139.828 402.974 140.88 405.283C141.798 407.362 143.333 409.109 145.278 410.285C147.223 411.462 149.483 412.011 151.75 411.859C153.96 411.675 155.821 410.802 156.273 408.532C156.399 407.82 156.374 407.09 156.202 406.387C156.029 405.685 155.712 405.026 155.271 404.453C150.497 398.002 149.414 393.76 149.414 393.76L151.356 371.106L141.324 370.782Z" fill="#FFB9B9"/>
<path d="M128.79 123.285C128.79 123.285 134.504 115.429 139.503 114.001C144.503 112.572 145.217 105.431 145.217 105.431C145.217 105.431 158.072 119.714 165.928 120.429C173.785 121.143 166.643 103.288 166.643 103.288L152.359 99.717L138.789 101.145L128.076 108.287L128.79 123.285Z" fill="#2F2E41"/>
<path d="M118.023 230.976L115.434 236.154C115.434 236.154 52.6505 256.219 57.8284 274.989C63.0064 293.759 92.1327 288.581 92.1327 288.581L124.495 294.407L127.731 280.167L105.078 274.342L143.913 260.102L145.207 326.122L140.029 373.371L152.974 374.666C152.974 374.666 167.214 331.3 165.272 313.177C165.272 313.177 189.22 239.39 175.628 228.387C162.036 217.384 118.023 230.976 118.023 230.976Z" fill="#2F2E41"/>
<path d="M149.85 156.552L139.75 144.346L132.909 147.481L125.79 170.135C125.79 170.135 119.964 181.138 127.084 192.789C127.084 192.789 128.379 200.556 126.437 202.497C124.495 204.439 123.848 216.737 123.848 216.737L115.434 232.918C115.434 232.918 163.33 241.332 177.57 229.682C177.57 229.682 170.098 202.134 174.628 193.72C179.159 185.305 179.806 172.406 174.628 166.581C169.45 160.756 163.977 145.539 163.977 145.539L160.843 143.535L149.85 156.552Z" fill="#CFCCE0"/>
<path d="M187.608 59.9157H181.4V53.708H180.836V59.9157H174.628V60.4797H180.836V66.6874H181.4V60.4797H187.608V59.9157Z" fill="#CFCCE0"/>
<path d="M128.611 46.9363H122.403V40.7286H121.839V46.9363H115.631V47.5003H121.839V53.708H122.403V47.5003H128.611V46.9363Z" fill="#CFCCE0"/>
<path d="M156.929 19.2077H150.722V13H150.157V19.2077H143.95V19.7717H150.157V25.9794H150.722V19.7717H156.929V19.2077Z" fill="#CFCCE0"/>
<path d="M65.4029 40.402L59.5629 44.1047L63.1075 37.6777C62.103 36.8758 60.8595 36.4322 59.5742 36.4171H59.4801C59.0743 36.423 58.6688 36.3928 58.2684 36.3268L56.2892 37.5836L57.1396 36.0408C55.7364 35.5505 54.5245 34.6284 53.6777 33.4068L50.1331 35.6645L52.372 31.5968C50.2986 29.1095 47.5065 27.5856 44.436 27.5856C40.7521 27.5856 37.4709 29.7756 35.3524 33.1885C34.7249 34.2127 33.8371 35.0521 32.7794 35.6212C31.7218 36.1904 30.5321 36.4689 29.3317 36.4284H29.1323C25.0646 36.4284 21.7683 41.0379 21.7683 46.7274C21.7683 52.4169 25.0646 57.0265 29.1323 57.0265C30.0271 57.0223 30.9077 56.8015 31.6986 56.383C33.0826 55.7103 34.5963 55.3463 36.1348 55.3165C37.6734 55.2866 39.2001 55.5914 40.6092 56.2099C41.8012 56.7432 43.0925 57.0189 44.3984 57.0189C45.7043 57.0189 46.9956 56.7432 48.1876 56.2099C49.5866 55.6035 51.0996 55.305 52.6241 55.3349C54.1486 55.3647 55.6488 55.7222 57.0229 56.383C57.8057 56.7927 58.6756 57.0083 59.5591 57.0114C63.6268 57.0114 66.9231 52.3981 66.9231 46.7124C66.9555 44.5145 66.4326 42.344 65.4029 40.402Z" fill="#A3A1D0"/>
<path opacity="0.03" d="M54.3963 55.4724C52.2715 55.0678 50.0744 55.3063 48.0859 56.1572C46.8922 56.6864 45.6004 56.9582 44.2947 56.955C42.9889 56.9517 41.6985 56.6735 40.5074 56.1384C39.0981 55.5205 37.5712 55.2163 36.0327 55.2468C34.4941 55.2773 32.9806 55.6419 31.5969 56.3153C30.8055 56.7322 29.9251 56.9517 29.0306 56.955C25.4182 56.955 22.4116 53.3162 21.787 48.5148C22.5088 47.9888 23.1222 47.3282 23.5932 46.5694C25.7079 43.1564 28.9929 40.9626 32.6768 40.9626C36.3607 40.9626 39.6006 43.1263 41.7078 46.5054C42.3413 47.5279 43.2288 48.369 44.2839 48.9467C45.339 49.5243 46.5257 49.8189 47.7284 49.8017H47.8225C50.6936 49.8017 53.1846 52.1084 54.3963 55.4724Z" fill="black"/>
<path opacity="0.1" d="M403.91 476.933C403.919 478.221 403.793 479.506 403.534 480.767C403.481 481.004 403.429 481.238 403.376 481.463C403.207 481.463 403.045 481.463 402.875 481.445C401.652 481.376 400.437 481.209 399.24 480.944C398.179 481.275 397.095 481.527 395.997 481.697C395.155 481.823 394.307 481.903 393.457 481.934C393.171 481.934 392.885 481.934 392.599 481.934C391.581 481.935 390.564 481.867 389.555 481.731C387.924 481.514 386.322 481.116 384.78 480.545C383.933 480.826 383.071 481.057 382.198 481.238C382.161 481.08 382.127 480.921 382.089 480.763C381.824 479.503 381.691 478.217 381.694 476.929C381.694 468.891 386.672 462.378 392.81 462.378C398.947 462.378 403.91 468.895 403.91 476.933Z" fill="black"/>
<path d="M427.624 449.825C427.626 446.296 426.797 442.815 425.204 439.665L412.128 443.733L423.605 436.982C421.681 434.201 419.157 431.887 416.219 430.212C413.281 428.537 410.004 427.543 406.631 427.304C406.092 426.479 405.5 425.689 404.858 424.941L386.067 430.785L401.472 421.746C398.528 419.485 395.072 417.985 391.41 417.378C387.748 416.771 383.993 417.076 380.477 418.267C376.961 419.458 373.793 421.497 371.253 424.204C368.713 426.911 366.88 430.203 365.916 433.788L382.003 452.301L364.535 439.688C360.098 442.815 356.935 447.435 355.625 452.703C354.314 457.97 354.944 463.534 357.399 468.375C359.853 473.217 363.969 477.013 368.992 479.069C374.016 481.126 379.612 481.305 384.757 479.575C389.405 481.277 394.482 481.412 399.214 479.958C402.515 480.684 405.937 480.66 409.228 479.889C412.518 479.118 415.594 477.619 418.23 475.503C420.865 473.386 422.992 470.706 424.455 467.659C425.918 464.612 426.679 461.276 426.683 457.896C426.683 457.392 426.664 456.896 426.631 456.391C427.284 454.264 427.619 452.051 427.624 449.825Z" fill="#57B894"/>
<path opacity="0.1" d="M427.233 454.017C420.329 452.709 413.25 452.619 406.315 453.75C398.465 455.052 390.443 457.908 382.766 455.819C378.251 454.593 374.36 451.759 369.973 450.175C365.722 448.695 361.144 448.427 356.75 449.4C355.074 453.405 354.587 457.808 355.347 462.083C356.107 466.358 358.082 470.323 361.036 473.505C363.99 476.687 367.798 478.951 372.005 480.026C376.211 481.101 380.639 480.941 384.757 479.567C389.404 481.272 394.482 481.409 399.214 479.958C402.515 480.684 405.937 480.66 409.228 479.889C412.518 479.118 415.594 477.619 418.23 475.503C420.865 473.386 422.992 470.706 424.455 467.659C425.918 464.612 426.679 461.276 426.683 457.896C426.683 457.392 426.664 456.895 426.631 456.391C426.876 455.612 427.077 454.819 427.233 454.017Z" fill="black"/>
<path d="M377.958 279.358C382.605 279.358 386.372 275.591 386.372 270.944C386.372 266.297 382.605 262.53 377.958 262.53C373.311 262.53 369.544 266.297 369.544 270.944C369.544 275.591 373.311 279.358 377.958 279.358Z" fill="#A3A1D0"/>
<path d="M414.851 348.614C419.498 348.614 423.265 344.847 423.265 340.2C423.265 335.552 419.498 331.785 414.851 331.785C410.204 331.785 406.437 335.552 406.437 340.2C406.437 344.847 410.204 348.614 414.851 348.614Z" fill="#A3A1D0"/>
<path d="M386.372 331.138C391.019 331.138 394.786 327.371 394.786 322.724C394.786 318.077 391.019 314.31 386.372 314.31C381.725 314.31 377.958 318.077 377.958 322.724C377.958 327.371 381.725 331.138 386.372 331.138Z" fill="#A3A1D0"/>
<path d="M389.056 442.155C388.907 441.913 385.405 436.065 384.191 423.921C383.077 412.78 383.793 394.001 393.532 367.806C411.983 318.181 389.28 278.14 389.048 277.741L390.168 277.092C390.227 277.193 396.085 287.401 399.546 303.657C404.119 325.209 402.453 347.618 394.746 368.257C376.327 417.797 390.02 441.25 390.161 441.481L389.056 442.155Z" fill="#CFCCE0"/>
<path d="M381.841 275.475C380.049 275.475 378.297 274.943 376.807 273.948C375.317 272.952 374.156 271.537 373.47 269.881C372.784 268.225 372.604 266.403 372.954 264.645C373.304 262.888 374.167 261.273 375.434 260.006C376.701 258.738 378.316 257.875 380.074 257.526C381.831 257.176 383.653 257.356 385.309 258.041C386.965 258.727 388.38 259.889 389.376 261.379C390.371 262.869 390.903 264.621 390.903 266.413C390.9 268.816 389.945 271.119 388.246 272.818C386.547 274.516 384.244 275.472 381.841 275.475ZM381.841 258.646C380.305 258.646 378.804 259.102 377.526 259.955C376.249 260.809 375.254 262.022 374.666 263.441C374.078 264.86 373.924 266.422 374.224 267.928C374.523 269.435 375.263 270.819 376.349 271.905C377.436 272.992 378.819 273.731 380.326 274.031C381.833 274.331 383.394 274.177 384.814 273.589C386.233 273.001 387.446 272.006 388.299 270.728C389.153 269.451 389.608 267.949 389.608 266.413C389.606 264.354 388.787 262.38 387.331 260.924C385.875 259.468 383.901 258.649 381.841 258.646Z" fill="#CFCCE0"/>
<path d="M408.379 305.895C413.026 305.895 416.793 302.128 416.793 297.481C416.793 292.834 413.026 289.067 408.379 289.067C403.732 289.067 399.964 292.834 399.964 297.481C399.964 302.128 403.732 305.895 408.379 305.895Z" fill="#CFCCE0"/>
<path d="M390.256 327.255C388.463 327.255 386.712 326.723 385.221 325.727C383.731 324.732 382.57 323.317 381.884 321.661C381.198 320.005 381.019 318.183 381.368 316.425C381.718 314.668 382.581 313.053 383.848 311.786C385.116 310.518 386.73 309.655 388.488 309.306C390.246 308.956 392.068 309.136 393.723 309.821C395.379 310.507 396.794 311.669 397.79 313.159C398.786 314.649 399.317 316.401 399.317 318.193C399.315 320.596 398.359 322.899 396.66 324.598C394.961 326.296 392.658 327.252 390.256 327.255ZM390.256 310.426C388.72 310.426 387.218 310.882 385.941 311.735C384.663 312.589 383.668 313.802 383.08 315.221C382.492 316.64 382.338 318.202 382.638 319.708C382.938 321.215 383.677 322.599 384.764 323.685C385.85 324.771 387.234 325.511 388.74 325.811C390.247 326.111 391.809 325.957 393.228 325.369C394.647 324.781 395.86 323.785 396.714 322.508C397.567 321.231 398.023 319.729 398.023 318.193C398.02 316.134 397.201 314.16 395.745 312.704C394.289 311.247 392.315 310.428 390.256 310.426V310.426Z" fill="#CFCCE0"/>
<path d="M412.262 344.73C410.47 344.73 408.718 344.199 407.228 343.203C405.738 342.207 404.576 340.792 403.89 339.136C403.205 337.481 403.025 335.659 403.375 333.901C403.724 332.143 404.587 330.529 405.855 329.261C407.122 327.994 408.737 327.131 410.494 326.781C412.252 326.432 414.074 326.611 415.73 327.297C417.386 327.983 418.801 329.144 419.797 330.634C420.792 332.125 421.324 333.877 421.324 335.669C421.321 338.071 420.365 340.374 418.667 342.073C416.968 343.772 414.665 344.728 412.262 344.73ZM412.262 327.902C410.726 327.902 409.224 328.357 407.947 329.211C406.67 330.064 405.674 331.277 405.086 332.696C404.499 334.116 404.345 335.677 404.644 337.184C404.944 338.691 405.684 340.075 406.77 341.161C407.856 342.247 409.24 342.987 410.747 343.287C412.254 343.586 413.815 343.432 415.234 342.845C416.654 342.257 417.867 341.261 418.72 339.984C419.574 338.707 420.029 337.205 420.029 335.669C420.027 333.61 419.208 331.635 417.752 330.179C416.296 328.723 414.321 327.904 412.262 327.902Z" fill="#CFCCE0"/>
<path d="M383.783 371.267C388.43 371.267 392.197 367.5 392.197 362.853C392.197 358.206 388.43 354.439 383.783 354.439C379.136 354.439 375.369 358.206 375.369 362.853C375.369 367.5 379.136 371.267 383.783 371.267Z" fill="#CFCCE0"/>
<path d="M394.139 442.465C394.139 442.465 385.725 421.753 410.968 406.219L394.139 442.465Z" fill="#CFCCE0"/>
<path d="M383.791 442.089C383.791 442.089 379.962 420.064 350.323 420.253L383.791 442.089Z" fill="#CFCCE0"/>
<defs>
<linearGradient id="paint0_linear_12:15" x1="639.5" y1="-242.746" x2="639.5" y2="624.204" gradientUnits="userSpaceOnUse">
<stop offset="0.9999" stop-color="#180D43"/>
<stop offset="1" stop-color="#180D43" stop-opacity="0.25"/>
</linearGradient>
</defs>
</svg>
